<svg xmlns="http://www.w3.org/2000/svg" width="73" height="58"><svg xmlns="http://www.w3.org/2000/svg" width="73" height="58" fill="none" viewBox="0 0 73 58"><path fill="#fff" d="M29.8 57v-9.3l-.2-1.5V30.7c0-3.6-1-6.3-3-8.3-2-1.9-5-2.8-9-2.8a22.2 22.2 0 0 0-14 5l-2.5-4.3C3.3 18.5 5.8 17 8.8 16s6.1-1.5 9.4-1.5c5.5 0 9.7 1.4 12.6 4 3 2.7 4.5 6.8 4.5 12.3V57h-5.5Zm-14.4.4c-3.2 0-6-.5-8.3-1.5-2.3-1-4-2.5-5.3-4.3-1.2-2-1.8-4-1.8-6.4 0-2.2.5-4.2 1.5-6A11 11 0 0 1 6.6 35a23 23 0 0 1 9.6-1.7h14.5v4.3H16.4c-4 0-6.9.7-8.5 2.1A7 7 0 0 0 5.6 45a7 7 0 0 0 2.8 5.8c1.9 1.4 4.5 2.1 7.8 2.1 3.2 0 6-.7 8.3-2.1 2.3-1.5 4-3.7 5.1-6.4l1.3 3.9c-1 2.8-3 5-5.6 6.6-2.6 1.7-6 2.5-10 2.5Z"/><path fill="#fff" d="M53.4 57.4c-4.4 0-8.3-1-11.6-2.7A20.4 20.4 0 0 1 31.3 36c0-4.2.9-7.9 2.6-11a20 20 0 0 1 18-10.4c3.9 0 7.4 1 10.4 2.7 3.1 1.8 5.5 4.3 7.3 7.5a22.7 22.7 0 0 1 2.6 12v1H35.6v-4.3h33.5L67 35.2a16 16 0 0 0-7.3-13.7c-2.2-1.4-4.8-2-7.8-2-2.8 0-5.4.6-7.7 2-2.3 1.3-4.1 3.2-5.4 5.6-1.3 2.4-1.9 5.1-1.9 8.2v.9c0 3.2.7 6 2 8.5 1.5 2.4 3.5 4.3 6 5.7 2.6 1.3 5.5 2 8.7 2 2.6 0 5-.5 7.1-1.4 2.3-1 4.2-2.3 5.8-4.2l3.2 3.7a18 18 0 0 1-7 5.1 23.4 23.4 0 0 1-9.2 1.8Z"/><path fill="#fff" fill-rule="evenodd" d="M67.6 6h-28V0h28v6Z" clip-rule="evenodd"/></svg><style>@media (prefers-color-scheme:light){:root{filter:none}}@media (prefers-color-scheme:dark){:root{filter:none}}</style></svg>