<svg xmlns="http://www.w3.org/2000/svg" width="74" height="58" fill="none"><path fill="#fff" d="M18.72 14.2c5.87 0 10.35 1.44 13.44 4.32 3.15 2.88 4.72 7.17 4.72 12.88V57H29.6v-5.6a12.35 12.35 0 0 1-5.52 4.56 21.1 21.1 0 0 1-8.4 1.52c-4.75 0-8.56-1.15-11.44-3.44A11.08 11.08 0 0 1 0 45c0-3.73 1.36-6.72 4.08-8.96 2.72-2.3 7.04-3.44 12.96-3.44H29.2v-1.52c0-3.3-.96-5.84-2.88-7.6-1.92-1.76-4.75-2.64-8.48-2.64-2.5 0-4.96.43-7.36 1.28-2.4.8-4.43 1.9-6.08 3.28l-3.2-5.76c2.19-1.76 4.8-3.1 7.84-4a31.96 31.96 0 0 1 9.68-1.44Zm-1.76 37.36c2.93 0 5.47-.64 7.6-1.92a11.43 11.43 0 0 0 4.64-5.6v-5.92H17.36c-6.5 0-9.76 2.19-9.76 6.56 0 2.13.83 3.81 2.48 5.04s3.95 1.84 6.88 1.84Z"/><path fill="#fff" d="M73.6 36.04c0 .59-.05 1.36-.16 2.32h-34.4c.48 3.73 2.1 6.75 4.88 9.04 2.83 2.24 6.32 3.36 10.48 3.36 5.07 0 9.15-1.7 12.24-5.12l4.24 4.96a18.51 18.51 0 0 1-7.2 5.12c-2.83 1.17-6 1.76-9.52 1.76-4.48 0-8.45-.9-11.92-2.72A20.22 20.22 0 0 1 34.16 47a22.38 22.38 0 0 1-2.8-11.2c0-4.1.9-7.81 2.72-11.12 1.87-3.3 4.4-5.87 7.6-7.68 3.25-1.87 6.9-2.8 10.96-2.8 4.05 0 7.65.93 10.8 2.8a18.77 18.77 0 0 1 7.44 7.68c1.81 3.3 2.72 7.1 2.72 11.36ZM52.64 20.68c-3.68 0-6.77 1.12-9.28 3.36a13.63 13.63 0 0 0-4.32 8.8h27.2a13.4 13.4 0 0 0-4.4-8.72c-2.45-2.3-5.52-3.44-9.2-3.44Z"/><path fill="#fff" fill-rule="evenodd" d="M68 6H40V0h28v6Z" clip-rule="evenodd"/></svg>