<svg aria-hidden="true" style="position: absolute; width: 0; height: 0; overflow: hidden;" version="1.1"            xmlns="http://www.w3.org/2000/svg" xmlns:xlink="http://www.w3.org/1999/xlink">
    <defs>
        <symbol id="icon-Logo" viewBox="0 0 41 32">
            <path d="M16.267 31.111v-4.889l-0.267-0.889v-8.444c0-1.778-0.533-3.111-1.6-4.089-0.978-0.978-2.578-1.511-4.622-1.511-0.018-0-0.039-0-0.061-0-2.767 0-5.315 0.936-7.345 2.509l0.027-0.020-1.778-3.111c1.244-0.978 2.667-1.778 4.356-2.222 1.689-0.533 3.467-0.8 5.333-0.8 3.111 0 5.6 0.8 7.378 2.311 1.689 1.6 2.578 3.911 2.578 7.111v14.044h-4zM8.622 31.378c-1.778 0-3.289-0.267-4.622-0.889-1.2-0.538-2.191-1.358-2.919-2.378l-0.015-0.022c-0.674-1.033-1.076-2.298-1.076-3.657 0-1.238 0.333-2.399 0.915-3.397l-0.017 0.032c0.622-0.889 1.6-1.778 2.933-2.4s3.2-0.889 5.511-0.889h7.378v3.022h-7.111c-2.222 0-3.556 0.356-4.356 1.067-0.711 0.711-1.067 1.511-1.067 2.489 0 1.156 0.444 2.133 1.333 2.756 0.979 0.673 2.191 1.075 3.496 1.075 0.115 0 0.229-0.003 0.342-0.009l-0.016 0.001c1.511 0 2.933-0.356 4.089-1.067 1.244-0.711 2.044-1.778 2.667-3.111l0.8 2.933c-0.594 1.413-1.615 2.549-2.9 3.272l-0.033 0.017c-1.41 0.735-3.080 1.166-4.85 1.166-0.17 0-0.339-0.004-0.507-0.012l0.024 0.001z"></path>
            <path d="M29.689 31.378c-2.489 0-4.622-0.444-6.578-1.511-3.526-1.956-5.874-5.656-5.874-9.905 0-0.143 0.003-0.285 0.008-0.426l-0.001 0.020c-0.015-0.211-0.023-0.457-0.023-0.705 0-4.124 2.284-7.715 5.655-9.577l0.056-0.028c1.778-1.067 3.733-1.6 5.956-1.6s4.267 0.533 5.956 1.511c1.778 0.978 3.111 2.4 4.089 4.178 0.91 1.707 1.444 3.733 1.444 5.884 0 0.59-0.040 1.17-0.118 1.738l0.007-0.066h-19.733v-3.022h17.6l-1.778 1.067c0-1.511-0.267-2.844-0.889-4-1.293-2.247-3.681-3.735-6.416-3.735-0.057 0-0.114 0.001-0.17 0.002l0.008-0c-1.511 0-2.756 0.356-3.911 1.067-1.13 0.629-2.038 1.537-2.649 2.632l-0.018 0.034c-0.622 1.244-0.978 2.578-0.978 4.089v0.711c0 1.511 0.356 2.933 1.067 4.178 0.711 1.156 1.778 2.133 3.022 2.756 1.244 0.711 2.756 1.067 4.444 1.067 1.333 0 2.667-0.267 3.733-0.711 1.125-0.516 2.073-1.237 2.835-2.123l0.009-0.011 2.4 2.667c-1.065 1.239-2.407 2.21-3.932 2.82l-0.068 0.024c-1.511 0.711-3.289 0.978-5.244 0.978z"></path>
            <path d="M37.333 3.289h-15.378v-3.289h15.378v3.289z"></path>
        </symbol>
        <symbol id="icon-tel" viewBox="0 0 32 32">
            <path d="M29.236 6.109l-3.782-3.927c-0.453-0.491-1.1-0.797-1.818-0.797s-1.365 0.306-1.817 0.795l-0.002 0.002-4.073 4.218c-0.446 0.447-0.721 1.064-0.721 1.745s0.276 1.298 0.721 1.746l-0-0 3.2 3.345c-1.517 3.476-4.234 6.192-7.615 7.672l-0.095 0.037-3.345-3.2c-0.447-0.446-1.064-0.721-1.745-0.721s-1.298 0.276-1.746 0.721l0-0-4.218 4.073c-0.491 0.453-0.797 1.1-0.797 1.818s0.306 1.365 0.795 1.817l0.002 0.002 3.927 3.636c0.796 0.835 1.917 1.354 3.159 1.354 0.22 0 0.435-0.016 0.646-0.048l-0.024 0.003c4.8-0.873 9.455-3.345 13.382-7.273s6.4-8.727 7.273-13.382c0.145-1.455-0.291-2.909-1.309-3.782zM27.782 9.455c-0.582 4.218-2.909 8.436-6.4 11.927s-7.709 5.818-11.927 6.545c-0.582 0-1.164 0-1.455-0.436l-3.927-3.927 4.073-3.927 4.364 4.364 0.873-0.291c4.74-1.841 8.405-5.554 10.142-10.207l0.039-0.121 0.436-0.873-4.364-4.364 3.927-4.073 4.073 3.782c0.291 0.436 0.582 1.018 0.436 1.455z"></path>
        </symbol>
        <symbol id="icon-Burger" viewBox="0 0 32 32">
            <path d="M4 5.333h24v2.667h-24v-2.667zM12 14.667h16v2.667h-16v-2.667zM4 24h24v2.667h-24v-2.667z"></path>
        </symbol>
        <symbol id="icon-hero-animated" viewBox="0 0 32 32">
            <path d="M26.4 17.053c0-0.253 0.084-0.421 0.168-0.674 0.084-0.168 0.168-0.337 0.295-0.421l0.295 0.168c-0.24 0.27-0.395 0.62-0.421 1.005l-0 0.005c-0.042 0.253 0 0.421 0.042 0.589 0.084 0.126 0.168 0.211 0.337 0.211 0.084 0 0.168 0 0.253-0.084l0.168-0.253 0.126-0.337c0.087-0.313 0.173-0.565 0.271-0.811l-0.019 0.053 0.295-0.211c0.084-0.084 0.211-0.084 0.421-0.084 0.126 0 0.253 0.084 0.379 0.211 0.126 0.084 0.168 0.211 0.253 0.421v0.589c-0.026 0.379-0.148 0.724-0.342 1.018l0.005-0.008-0.295-0.211 0.211-0.421 0.126-0.421c0-0.253 0-0.421-0.084-0.547-0.059-0.136-0.185-0.234-0.335-0.252l-0.002-0c-0.084 0-0.168 0-0.253 0.084l-0.168 0.253-0.126 0.337c-0.088 0.295-0.188 0.546-0.307 0.786l0.013-0.028c-0.113 0.182-0.312 0.302-0.539 0.302-0.033 0-0.065-0.003-0.097-0.007l0.004 0c-0.168 0-0.295-0.084-0.421-0.168-0.126-0.126-0.211-0.253-0.253-0.421 0-0.211-0.042-0.421 0-0.674zM28.337 21.095c-0.084 0.211-0.168 0.421-0.337 0.505-0.168 0.168-0.337 0.211-0.547 0.253-0.211 0-0.421 0-0.674-0.126l-1.558-0.589 0.126-0.379 1.516 0.589c0.295 0.126 0.547 0.126 0.758 0.042 0.194-0.096 0.343-0.259 0.419-0.457l0.002-0.006c0.084-0.211 0.126-0.421 0.084-0.547-0.009-0.176-0.071-0.335-0.17-0.465l0.002 0.002c-0.126-0.126-0.295-0.253-0.505-0.337l-1.347-0.547 0.126-0.379 3.789 1.516-0.126 0.379-1.853-0.758h0.168c0.168 0.168 0.253 0.337 0.295 0.589 0 0.211 0 0.463-0.126 0.716zM24.211 22.442c0.168-0.211 0.379-0.379 0.589-0.421 0.166-0.073 0.36-0.116 0.564-0.116 0.347 0 0.665 0.123 0.912 0.328l-0.002-0.002c0.211 0.168 0.379 0.421 0.421 0.632 0.126 0.253 0.168 0.463 0.126 0.716s-0.168 0.505-0.337 0.716c-0.211 0.211-0.421 0.379-0.632 0.463-0.253 0.084-0.463 0.126-0.716 0.084s-0.505-0.168-0.716-0.337c-0.253-0.168-0.421-0.421-0.463-0.632-0.126-0.211-0.126-0.463-0.084-0.716 0-0.253 0.126-0.505 0.337-0.716zM24.463 22.653l-0.253 0.505c0 0.211 0 0.421 0.084 0.547 0.084 0.211 0.211 0.337 0.379 0.505 0.168 0.126 0.337 0.211 0.547 0.253l0.547-0.042c0.168-0.084 0.295-0.168 0.421-0.337 0.168-0.186 0.27-0.433 0.27-0.704 0-0.125-0.022-0.245-0.062-0.356l0.002 0.007c-0.084-0.168-0.211-0.337-0.421-0.505-0.126-0.126-0.337-0.211-0.505-0.253l-0.547 0.042c-0.168 0.084-0.337 0.211-0.421 0.337zM21.684 24.758c0.168-0.168 0.421-0.211 0.632-0.253 0.253 0 0.421 0 0.674 0.168 0.211 0.084 0.421 0.295 0.589 0.547s0.295 0.505 0.295 0.758c0 0.253 0 0.463-0.126 0.674-0.084 0.211-0.253 0.421-0.421 0.505-0.253 0.168-0.505 0.253-0.758 0.253-0.044 0.006-0.096 0.009-0.148 0.009-0.207 0-0.403-0.050-0.575-0.138l0.007 0.003c-0.211-0.126-0.421-0.295-0.547-0.547-0.168-0.211-0.253-0.463-0.295-0.716 0-0.253 0-0.505 0.126-0.716s0.295-0.421 0.547-0.547zM22.316 23.074l2.189 3.242-0.295 0.211-0.505-0.716-0.253-0.505-0.421-0.421-1.053-1.6 0.337-0.211zM21.895 25.011l-0.421 0.421-0.084 0.547c0 0.168 0.084 0.379 0.211 0.547 0.126 0.211 0.295 0.337 0.421 0.421 0.139 0.073 0.304 0.115 0.479 0.115 0.231 0 0.445-0.075 0.619-0.201l-0.003 0.002c0.168-0.084 0.295-0.253 0.421-0.421l0.084-0.547c0-0.168-0.084-0.379-0.211-0.547-0.107-0.173-0.248-0.314-0.416-0.418l-0.005-0.003-0.589-0.126c-0.168 0-0.337 0.084-0.505 0.211zM17.937 29.179h-0.632c-0.168-0.084-0.337-0.211-0.463-0.379s-0.211-0.379-0.253-0.632l-0.253-1.684 0.379-0.042 0.253 1.6c0 0.295 0.168 0.505 0.337 0.674 0.168 0.126 0.379 0.168 0.632 0.126l0.589-0.211c0.126-0.126 0.211-0.253 0.253-0.421 0.084-0.168 0.084-0.337 0.042-0.547l-0.211-1.516 0.379-0.042 0.421 2.821-0.337 0.084-0.126-0.8 0.084 0.126c-0.084 0.253-0.211 0.421-0.379 0.547-0.168 0.168-0.421 0.253-0.674 0.295zM14.611 26.316c0.295 0 0.505 0.126 0.716 0.295 0.322 0.265 0.525 0.663 0.525 1.108 0 0.084-0.007 0.167-0.021 0.248l0.001-0.009c0 0.295-0.126 0.547-0.295 0.758-0.126 0.168-0.337 0.337-0.589 0.421-0.211 0.084-0.463 0.126-0.758 0.084s-0.505-0.168-0.716-0.295c-0.32-0.272-0.522-0.675-0.522-1.125 0-0.078 0.006-0.155 0.018-0.23l-0.001 0.008c0-0.295 0.126-0.547 0.295-0.758 0.126-0.211 0.337-0.337 0.589-0.421 0.211-0.126 0.505-0.126 0.758-0.084zM14.568 26.653l-0.547 0.042c-0.211 0.084-0.337 0.211-0.421 0.337-0.168 0.168-0.211 0.337-0.253 0.589l0.042 0.589c0.084 0.168 0.168 0.337 0.337 0.421 0.126 0.126 0.295 0.211 0.505 0.253 0.048 0.008 0.103 0.012 0.159 0.012 0.348 0 0.657-0.169 0.849-0.43l0.002-0.003c0.126-0.126 0.168-0.337 0.211-0.547s0-0.421-0.042-0.589c-0.084-0.211-0.168-0.337-0.337-0.463-0.126-0.126-0.295-0.168-0.505-0.211zM12.211 25.811l-0.421 3.032-0.295-0.168 0.421-2.821 0.126 0.084-2.189 1.895-0.295-0.168 0.421-2.821 0.126 0.084-2.105 1.853-0.337-0.168 2.316-2.021 0.337 0.211-0.379 2.653-0.084-0.084 2.063-1.726 0.295 0.168zM7.621 22.189l0.337 0.589 0.084 0.589h-0.379c0-0.381-0.127-0.733-0.34-1.015l0.003 0.004-0.421-0.421c-0.042-0.015-0.090-0.024-0.139-0.024-0.108 0-0.207 0.041-0.282 0.108l0-0c-0.084 0.042-0.126 0.126-0.126 0.211l0.042 0.295 0.168 0.379c0.077 0.18 0.163 0.417 0.238 0.66l0.015 0.056v0.379l-0.295 0.295c-0.126 0.084-0.253 0.126-0.421 0.126-0.157-0.004-0.301-0.051-0.425-0.128l0.003 0.002c-0.168-0.084-0.337-0.253-0.463-0.421-0.218-0.28-0.369-0.624-0.42-1l-0.001-0.011 0.379-0.042c0 0.168 0 0.295 0.084 0.421l0.211 0.421c0.168 0.211 0.295 0.337 0.421 0.379 0.168 0.042 0.295 0 0.421-0.042l0.126-0.253v-0.295l-0.168-0.337c-0.107-0.212-0.207-0.463-0.286-0.724l-0.009-0.034c-0.004-0.028-0.007-0.060-0.007-0.093 0-0.227 0.12-0.426 0.299-0.537l0.003-0.002c0.126-0.126 0.253-0.168 0.421-0.168s0.295 0.084 0.463 0.168c0.168 0.126 0.337 0.253 0.463 0.463zM3.453 20.547c-0.084-0.253-0.126-0.421-0.084-0.632 0-0.211 0.084-0.421 0.211-0.547 0.126-0.168 0.337-0.295 0.589-0.379l1.558-0.589 0.168 0.379-1.558 0.547c-0.253 0.126-0.421 0.295-0.547 0.463-0.084 0.211-0.084 0.421 0 0.674l0.295 0.463c0.126 0.126 0.295 0.168 0.463 0.211 0.168 0 0.379 0 0.589-0.084l1.389-0.505 0.126 0.337-3.789 1.432-0.126-0.379 1.853-0.674-0.126 0.126c-0.211 0-0.421-0.084-0.589-0.253-0.211-0.126-0.337-0.337-0.421-0.589zM5.6 16.758c0 0.295 0 0.547-0.126 0.758-0.235 0.471-0.711 0.791-1.262 0.8h-0.001c-0.295 0-0.547-0.042-0.758-0.168s-0.421-0.295-0.547-0.505c-0.126-0.211-0.211-0.421-0.211-0.716s0-0.547 0.126-0.758c0.243-0.465 0.714-0.782 1.261-0.8l0.002-0c0.253 0 0.505 0 0.758 0.168 0.211 0.084 0.421 0.253 0.547 0.463s0.211 0.463 0.211 0.758zM5.263 16.758c-0.014-0.392-0.249-0.726-0.583-0.882l-0.006-0.003c-0.168-0.084-0.379-0.126-0.589-0.126s-0.421 0.084-0.589 0.211c-0.168 0.084-0.295 0.211-0.379 0.421-0.084 0.126-0.126 0.295-0.084 0.505 0 0.001 0 0.002 0 0.003 0 0.396 0.219 0.741 0.542 0.921l0.005 0.003c0.211 0.084 0.421 0.126 0.632 0.084 0.211 0 0.421-0.042 0.589-0.168 0.126-0.084 0.253-0.253 0.337-0.421 0.084-0.126 0.126-0.337 0.126-0.547zM5.895 13.347c0 0.253-0.126 0.421-0.295 0.632-0.158 0.159-0.357 0.277-0.581 0.335l-0.009 0.002c-0.126 0.034-0.271 0.053-0.421 0.053s-0.295-0.020-0.433-0.056l0.012 0.003c-0.281-0.083-0.522-0.229-0.716-0.421l0 0c-0.168-0.126-0.295-0.337-0.379-0.547v-0.716c0.084-0.253 0.211-0.463 0.379-0.674 0.168-0.166 0.383-0.285 0.623-0.335l0.008-0.001c0.211-0.084 0.505-0.084 0.758 0 0.295 0.042 0.547 0.168 0.716 0.337s0.295 0.421 0.379 0.632v0.758zM6.568 15.032l-3.789-0.926 0.042-0.379 0.842 0.211 0.547 0.168 0.589 0.084 1.853 0.463-0.084 0.421zM5.6 13.305v-0.589c-0.084-0.168-0.168-0.337-0.295-0.421-0.168-0.168-0.337-0.253-0.547-0.295-0.211-0.084-0.421-0.084-0.589 0-0.38 0.077-0.682 0.351-0.798 0.708l-0.002 0.007v0.547c0.042 0.211 0.168 0.337 0.295 0.463 0.126 0.168 0.295 0.253 0.547 0.295h0.589c0.168-0.042 0.337-0.126 0.463-0.253l0.295-0.505zM5.684 7.579c0.126-0.168 0.295-0.295 0.505-0.421 0.168-0.042 0.379-0.084 0.547 0 0.211 0 0.421 0.084 0.632 0.295l1.305 1.011-0.253 0.337-1.263-1.053c-0.211-0.168-0.421-0.253-0.674-0.253-0.249 0.037-0.459 0.177-0.587 0.376l-0.002 0.003c-0.126 0.126-0.211 0.295-0.211 0.463-0.042 0.168 0 0.337 0.042 0.505 0.084 0.168 0.168 0.295 0.379 0.421l1.137 0.968-0.211 0.295-2.232-1.811 0.211-0.253 0.632 0.463h-0.168c-0.084-0.253-0.126-0.421-0.084-0.674 0-0.253 0.126-0.421 0.295-0.674zM10.021 7.495c-0.211 0.168-0.421 0.253-0.716 0.295-0.027 0.002-0.058 0.003-0.089 0.003-0.511 0-0.959-0.268-1.213-0.67l-0.004-0.006c-0.168-0.253-0.253-0.505-0.253-0.758s0-0.463 0.126-0.716c0.126-0.211 0.295-0.421 0.505-0.547 0.253-0.168 0.505-0.253 0.758-0.295 0.253 0 0.463 0.042 0.716 0.168 0.211 0.084 0.421 0.253 0.589 0.505s0.253 0.505 0.253 0.758c0 0.253 0 0.463-0.126 0.716-0.126 0.211-0.295 0.421-0.547 0.547zM9.853 7.242c0.168-0.126 0.295-0.253 0.379-0.421s0.084-0.379 0.084-0.547c0-0.211-0.084-0.421-0.211-0.589l-0.421-0.421c-0.211-0.084-0.379-0.084-0.547-0.084-0.211 0-0.379 0.084-0.547 0.168-0.283 0.192-0.467 0.512-0.467 0.875 0 0.033 0.002 0.066 0.004 0.098l-0-0.004c0 0.211 0.084 0.421 0.211 0.589l0.421 0.421 0.547 0.084c0.211 0 0.379-0.084 0.547-0.168zM12.211 6.232l-1.768-2.526 0.379-0.084 1.558 2.358h-0.126l0.337-2.779 0.337-0.084 1.6 2.358h-0.211l0.337-2.821 0.337-0.084-0.379 3.074-0.337 0.084-1.558-2.232h0.126l-0.337 2.653-0.379 0.084zM18.021 5.853l-0.632-0.253c-0.211-0.126-0.337-0.253-0.421-0.379l0.211-0.253c0.236 0.272 0.554 0.467 0.915 0.545l0.011 0.002h0.632c0.126-0.084 0.211-0.168 0.253-0.295 0-0.126 0-0.211-0.084-0.295l-0.211-0.168-0.337-0.168c-0.293-0.12-0.529-0.233-0.757-0.357l0.041 0.021-0.211-0.295v-0.421c0-0.126 0.084-0.253 0.211-0.379 0.113-0.105 0.257-0.18 0.416-0.21l0.005-0.001h0.632c0.378 0.086 0.705 0.263 0.97 0.507l-0.001-0.001-0.295 0.337c-0.205-0.198-0.461-0.345-0.746-0.418l-0.012-0.003c-0.253-0.084-0.463-0.084-0.589 0-0.126 0.052-0.22 0.16-0.252 0.292l-0.001 0.003v0.253l0.253 0.211 0.337 0.168c0.277 0.119 0.512 0.246 0.735 0.39l-0.019-0.011c0.161 0.116 0.264 0.303 0.264 0.513 0 0.042-0.004 0.083-0.012 0.122l0.001-0.004c-0.042 0.168-0.126 0.295-0.253 0.421-0.126 0.084-0.253 0.168-0.421 0.168-0.211 0.042-0.421 0-0.674 0zM22.316 4.295c0.168 0.084 0.337 0.211 0.421 0.421 0.168 0.126 0.211 0.295 0.211 0.505s-0.042 0.421-0.168 0.674l-0.8 1.516-0.337-0.211 0.758-1.432c0.126-0.253 0.168-0.505 0.126-0.716-0.084-0.211-0.211-0.379-0.463-0.505-0.168-0.084-0.379-0.126-0.547-0.126-0.006-0-0.012-0-0.019-0-0.164 0-0.318 0.047-0.447 0.129l0.003-0.002-0.379 0.421-0.674 1.389-0.379-0.211 1.895-3.579 0.337 0.168-0.884 1.768v-0.168c0.168-0.126 0.379-0.211 0.589-0.253 0.253 0 0.463 0.042 0.716 0.211zM23.242 8.547c-0.211-0.211-0.337-0.421-0.421-0.674-0.031-0.111-0.049-0.239-0.049-0.371 0-0.42 0.181-0.798 0.469-1.059l0.001-0.001c0.168-0.168 0.421-0.337 0.632-0.421h0.758c0.253 0.084 0.421 0.253 0.674 0.421 0.168 0.211 0.337 0.421 0.421 0.674v0.716c-0.084 0.253-0.211 0.505-0.421 0.674-0.211 0.211-0.421 0.337-0.674 0.421s-0.505 0.084-0.758 0c-0.211-0.084-0.421-0.211-0.632-0.421zM23.453 8.295c0.168 0.126 0.337 0.253 0.505 0.295h0.547c0.168-0.084 0.379-0.168 0.505-0.337 0.168-0.168 0.295-0.337 0.337-0.547v-0.505c-0.042-0.211-0.126-0.379-0.295-0.505-0.192-0.2-0.461-0.324-0.76-0.324-0.318 0-0.604 0.141-0.797 0.365l-0.001 0.001c-0.168 0.168-0.253 0.337-0.295 0.505-0.084 0.211-0.084 0.421 0 0.547 0 0.211 0.126 0.337 0.253 0.505zM25.263 11.2c-0.126-0.211-0.168-0.421-0.168-0.632 0-0.253 0.084-0.463 0.211-0.674s0.337-0.421 0.632-0.547c0.219-0.124 0.478-0.2 0.755-0.21l0.003-0c0.253 0 0.463 0.042 0.674 0.168s0.337 0.295 0.463 0.547c0.139 0.2 0.222 0.448 0.222 0.716s-0.083 0.516-0.225 0.72l0.003-0.004c-0.168 0.211-0.337 0.379-0.589 0.505s-0.505 0.211-0.758 0.211c-0.253 0-0.505-0.084-0.716-0.211s-0.421-0.337-0.505-0.589zM23.579 10.4l3.495-1.853 0.168 0.337-0.758 0.421-0.547 0.211-0.463 0.337-1.684 0.884-0.211-0.337zM25.516 11.032c0.084 0.168 0.211 0.337 0.379 0.421l0.505 0.168c0.211 0 0.421-0.084 0.589-0.168 0.211-0.126 0.379-0.253 0.463-0.421 0.089-0.151 0.141-0.333 0.141-0.526s-0.052-0.375-0.144-0.531l0.003 0.005c-0.084-0.168-0.211-0.337-0.337-0.421-0.168-0.084-0.337-0.168-0.547-0.168s-0.421 0.084-0.589 0.168c-0.173 0.107-0.314 0.248-0.418 0.416l-0.003 0.005c-0.126 0.126-0.168 0.337-0.211 0.505 0 0.168 0.042 0.379 0.168 0.547z"></path>
        </symbol>
        <symbol id="icon-hero-arrow" viewBox="0 0 42 32">
            <path d="M40.589 2.695c0-0.505-0.168-0.842-0.674-1.011l-7.411-1.179c-0.051-0.011-0.109-0.017-0.168-0.017-0.474 0-0.859 0.385-0.859 0.859 0 0.415 0.294 0.761 0.685 0.841l6.742 1.18-1.011 6.737c0 0.465 0.377 0.842 0.842 0.842s0.842-0.377 0.842-0.842v0l1.011-7.411zM2.189 30.989l38.063-27.789-0.842-1.347-38.232 27.789 1.011 1.347z"></path>
        </symbol>
        <symbol id="icon-Arrow-1" viewBox="0 0 47 32">
            <path d="M32.058 11.302c0.040-0.174-0.068-0.347-0.242-0.387l-2.827-0.653c-0.174-0.040-0.347 0.068-0.387 0.242s0.068 0.347 0.242 0.387l2.513 0.58-0.58 2.513c-0.040 0.174 0.068 0.347 0.242 0.387s0.347-0.068 0.387-0.242l0.653-2.827zM15.509 21.755l16.406-10.252-0.342-0.547-16.406 10.252 0.342 0.547z"></path>
        </symbol>
        <symbol id="icon-footer-logo" viewBox="0 0 41 32">
            <path d="M10.328 7.834c3.239 0 5.71 0.794 7.415 2.383 1.738 1.589 2.604 3.956 2.604 7.106v14.124h-4.017v-3.090c-0.746 1.113-1.782 1.978-3.001 2.499l-0.044 0.017c-1.287 0.533-2.781 0.842-4.347 0.842-0.101 0-0.202-0.001-0.302-0.004l0.015 0c-2.621 0-4.723-0.634-6.312-1.898-1.431-1.129-2.342-2.864-2.342-4.811 0-0.062 0.001-0.124 0.003-0.185l-0 0.009c0-2.058 0.75-3.708 2.251-4.943 1.501-1.269 3.884-1.898 7.15-1.898h6.709v-0.839c0-1.821-0.53-3.222-1.589-4.193s-2.621-1.457-4.679-1.457c-1.379 0-2.737 0.237-4.061 0.706-1.324 0.441-2.444 1.048-3.354 1.81l-1.766-3.178c1.208-0.971 2.648-1.71 4.326-2.207 1.565-0.504 3.366-0.795 5.234-0.795 0.037 0 0.075 0 0.112 0l-0.006-0zM9.357 28.447c1.617 0 3.018-0.353 4.193-1.059 1.158-0.727 2.049-1.788 2.545-3.047l0.015-0.043v-3.266h-6.532c-3.586 0-5.385 1.208-5.385 3.619 0 1.175 0.458 2.102 1.368 2.781s2.179 1.015 3.796 1.015z"></path>
            <path d="M40.607 19.884c0 0.326-0.028 0.75-0.088 1.28h-18.979c0.265 2.058 1.159 3.724 2.692 4.988 1.561 1.236 3.487 1.854 5.782 1.854 2.797 0 5.048-0.938 6.753-2.825l2.339 2.737c-1.061 1.226-2.393 2.189-3.904 2.8l-0.069 0.024c-1.561 0.646-3.31 0.971-5.252 0.971-2.472 0-4.662-0.497-6.577-1.501-1.874-1-3.389-2.458-4.429-4.229l-0.028-0.052c-0.973-1.725-1.546-3.787-1.546-5.983 0-0.069 0.001-0.138 0.002-0.207l-0 0.010c0-2.262 0.497-4.309 1.501-6.135 1.032-1.821 2.428-3.239 4.193-4.237 1.793-1.032 3.807-1.545 6.047-1.545 2.234 0 4.221 0.513 5.959 1.545 1.755 1 3.156 2.444 4.078 4.181l0.027 0.056c0.999 1.821 1.501 3.917 1.501 6.268zM29.043 11.41c-2.030 0-3.735 0.618-5.12 1.854-1.327 1.23-2.207 2.926-2.381 4.826l-0.002 0.029h15.007c-0.187-1.921-1.084-3.603-2.421-4.805l-0.007-0.006c-1.352-1.269-3.046-1.898-5.076-1.898z"></path>
            <path d="M37.517 3.31h-15.448v-3.31h15.448v3.31z"></path>
        </symbol>
    </defs>
</svg>
