<svg aria-hidden="true" style="position: absolute; width: 0; height: 0; overflow: hidden;" version="1.1"            xmlns="http://www.w3.org/2000/svg" xmlns:xlink="http://www.w3.org/1999/xlink">
    <defs>
        <symbol id="icon-Logo" viewBox="0 0 41 32">
            <path d="M16.267 31.111v-4.889l-0.267-0.889v-8.444c0-1.778-0.533-3.111-1.6-4.089-0.978-0.978-2.578-1.511-4.622-1.511-0.018-0-0.039-0-0.061-0-2.767 0-5.315 0.936-7.345 2.509l0.027-0.020-1.778-3.111c1.244-0.978 2.667-1.778 4.356-2.222 1.689-0.533 3.467-0.8 5.333-0.8 3.111 0 5.6 0.8 7.378 2.311 1.689 1.6 2.578 3.911 2.578 7.111v14.044h-4zM8.622 31.378c-1.778 0-3.289-0.267-4.622-0.889-1.2-0.538-2.191-1.358-2.919-2.378l-0.015-0.022c-0.674-1.033-1.076-2.298-1.076-3.657 0-1.238 0.333-2.399 0.915-3.397l-0.017 0.032c0.622-0.889 1.6-1.778 2.933-2.4s3.2-0.889 5.511-0.889h7.378v3.022h-7.111c-2.222 0-3.556 0.356-4.356 1.067-0.711 0.711-1.067 1.511-1.067 2.489 0 1.156 0.444 2.133 1.333 2.756 0.979 0.673 2.191 1.075 3.496 1.075 0.115 0 0.229-0.003 0.342-0.009l-0.016 0.001c1.511 0 2.933-0.356 4.089-1.067 1.244-0.711 2.044-1.778 2.667-3.111l0.8 2.933c-0.594 1.413-1.615 2.549-2.9 3.272l-0.033 0.017c-1.41 0.735-3.080 1.166-4.85 1.166-0.17 0-0.339-0.004-0.507-0.012l0.024 0.001z"></path>
            <path d="M29.689 31.378c-2.489 0-4.622-0.444-6.578-1.511-3.526-1.956-5.874-5.656-5.874-9.905 0-0.143 0.003-0.285 0.008-0.426l-0.001 0.020c-0.015-0.211-0.023-0.457-0.023-0.705 0-4.124 2.284-7.715 5.655-9.577l0.056-0.028c1.778-1.067 3.733-1.6 5.956-1.6s4.267 0.533 5.956 1.511c1.778 0.978 3.111 2.4 4.089 4.178 0.91 1.707 1.444 3.733 1.444 5.884 0 0.59-0.040 1.17-0.118 1.738l0.007-0.066h-19.733v-3.022h17.6l-1.778 1.067c0-1.511-0.267-2.844-0.889-4-1.293-2.247-3.681-3.735-6.416-3.735-0.057 0-0.114 0.001-0.17 0.002l0.008-0c-1.511 0-2.756 0.356-3.911 1.067-1.13 0.629-2.038 1.537-2.649 2.632l-0.018 0.034c-0.622 1.244-0.978 2.578-0.978 4.089v0.711c0 1.511 0.356 2.933 1.067 4.178 0.711 1.156 1.778 2.133 3.022 2.756 1.244 0.711 2.756 1.067 4.444 1.067 1.333 0 2.667-0.267 3.733-0.711 1.125-0.516 2.073-1.237 2.835-2.123l0.009-0.011 2.4 2.667c-1.065 1.239-2.407 2.21-3.932 2.82l-0.068 0.024c-1.511 0.711-3.289 0.978-5.244 0.978z"></path>
            <path d="M37.333 3.289h-15.378v-3.289h15.378v3.289z"></path>
        </symbol>
        <symbol id="icon-tel" viewBox="0 0 32 32">
            <path d="M29.236 6.109l-3.782-3.927c-0.453-0.491-1.1-0.797-1.818-0.797s-1.365 0.306-1.817 0.795l-0.002 0.002-4.073 4.218c-0.446 0.447-0.721 1.064-0.721 1.745s0.276 1.298 0.721 1.746l-0-0 3.2 3.345c-1.517 3.476-4.234 6.192-7.615 7.672l-0.095 0.037-3.345-3.2c-0.447-0.446-1.064-0.721-1.745-0.721s-1.298 0.276-1.746 0.721l0-0-4.218 4.073c-0.491 0.453-0.797 1.1-0.797 1.818s0.306 1.365 0.795 1.817l0.002 0.002 3.927 3.636c0.796 0.835 1.917 1.354 3.159 1.354 0.22 0 0.435-0.016 0.646-0.048l-0.024 0.003c4.8-0.873 9.455-3.345 13.382-7.273s6.4-8.727 7.273-13.382c0.145-1.455-0.291-2.909-1.309-3.782zM27.782 9.455c-0.582 4.218-2.909 8.436-6.4 11.927s-7.709 5.818-11.927 6.545c-0.582 0-1.164 0-1.455-0.436l-3.927-3.927 4.073-3.927 4.364 4.364 0.873-0.291c4.74-1.841 8.405-5.554 10.142-10.207l0.039-0.121 0.436-0.873-4.364-4.364 3.927-4.073 4.073 3.782c0.291 0.436 0.582 1.018 0.436 1.455z"></path>
        </symbol>
        <symbol id="icon-Burger" viewBox="0 0 32 32">
            <path d="M4 5.333h24v2.667h-24v-2.667zM12 14.667h16v2.667h-16v-2.667zM4 24h24v2.667h-24v-2.667z"></path>
        </symbol>
        <symbol id="icon-hero-animated" viewBox="0 0 32 32">
            <path d="M26.4 17.053c0-0.253 0.084-0.421 0.168-0.674 0.084-0.168 0.168-0.337 0.295-0.421l0.295 0.168c-0.24 0.27-0.395 0.62-0.421 1.005l-0 0.005c-0.042 0.253 0 0.421 0.042 0.589 0.084 0.126 0.168 0.211 0.337 0.211 0.084 0 0.168 0 0.253-0.084l0.168-0.253 0.126-0.337c0.087-0.313 0.173-0.565 0.271-0.811l-0.019 0.053 0.295-0.211c0.084-0.084 0.211-0.084 0.421-0.084 0.126 0 0.253 0.084 0.379 0.211 0.126 0.084 0.168 0.211 0.253 0.421v0.589c-0.026 0.379-0.148 0.724-0.342 1.018l0.005-0.008-0.295-0.211 0.211-0.421 0.126-0.421c0-0.253 0-0.421-0.084-0.547-0.059-0.136-0.185-0.234-0.335-0.252l-0.002-0c-0.084 0-0.168 0-0.253 0.084l-0.168 0.253-0.126 0.337c-0.088 0.295-0.188 0.546-0.307 0.786l0.013-0.028c-0.113 0.182-0.312 0.302-0.539 0.302-0.033 0-0.065-0.003-0.097-0.007l0.004 0c-0.168 0-0.295-0.084-0.421-0.168-0.126-0.126-0.211-0.253-0.253-0.421 0-0.211-0.042-0.421 0-0.674zM28.337 21.095c-0.084 0.211-0.168 0.421-0.337 0.505-0.168 0.168-0.337 0.211-0.547 0.253-0.211 0-0.421 0-0.674-0.126l-1.558-0.589 0.126-0.379 1.516 0.589c0.295 0.126 0.547 0.126 0.758 0.042 0.194-0.096 0.343-0.259 0.419-0.457l0.002-0.006c0.084-0.211 0.126-0.421 0.084-0.547-0.009-0.176-0.071-0.335-0.17-0.465l0.002 0.002c-0.126-0.126-0.295-0.253-0.505-0.337l-1.347-0.547 0.126-0.379 3.789 1.516-0.126 0.379-1.853-0.758h0.168c0.168 0.168 0.253 0.337 0.295 0.589 0 0.211 0 0.463-0.126 0.716zM24.211 22.442c0.168-0.211 0.379-0.379 0.589-0.421 0.166-0.073 0.36-0.116 0.564-0.116 0.347 0 0.665 0.123 0.912 0.328l-0.002-0.002c0.211 0.168 0.379 0.421 0.421 0.632 0.126 0.253 0.168 0.463 0.126 0.716s-0.168 0.505-0.337 0.716c-0.211 0.211-0.421 0.379-0.632 0.463-0.253 0.084-0.463 0.126-0.716 0.084s-0.505-0.168-0.716-0.337c-0.253-0.168-0.421-0.421-0.463-0.632-0.126-0.211-0.126-0.463-0.084-0.716 0-0.253 0.126-0.505 0.337-0.716zM24.463 22.653l-0.253 0.505c0 0.211 0 0.421 0.084 0.547 0.084 0.211 0.211 0.337 0.379 0.505 0.168 0.126 0.337 0.211 0.547 0.253l0.547-0.042c0.168-0.084 0.295-0.168 0.421-0.337 0.168-0.186 0.27-0.433 0.27-0.704 0-0.125-0.022-0.245-0.062-0.356l0.002 0.007c-0.084-0.168-0.211-0.337-0.421-0.505-0.126-0.126-0.337-0.211-0.505-0.253l-0.547 0.042c-0.168 0.084-0.337 0.211-0.421 0.337zM21.684 24.758c0.168-0.168 0.421-0.211 0.632-0.253 0.253 0 0.421 0 0.674 0.168 0.211 0.084 0.421 0.295 0.589 0.547s0.295 0.505 0.295 0.758c0 0.253 0 0.463-0.126 0.674-0.084 0.211-0.253 0.421-0.421 0.505-0.253 0.168-0.505 0.253-0.758 0.253-0.044 0.006-0.096 0.009-0.148 0.009-0.207 0-0.403-0.050-0.575-0.138l0.007 0.003c-0.211-0.126-0.421-0.295-0.547-0.547-0.168-0.211-0.253-0.463-0.295-0.716 0-0.253 0-0.505 0.126-0.716s0.295-0.421 0.547-0.547zM22.316 23.074l2.189 3.242-0.295 0.211-0.505-0.716-0.253-0.505-0.421-0.421-1.053-1.6 0.337-0.211zM21.895 25.011l-0.421 0.421-0.084 0.547c0 0.168 0.084 0.379 0.211 0.547 0.126 0.211 0.295 0.337 0.421 0.421 0.139 0.073 0.304 0.115 0.479 0.115 0.231 0 0.445-0.075 0.619-0.201l-0.003 0.002c0.168-0.084 0.295-0.253 0.421-0.421l0.084-0.547c0-0.168-0.084-0.379-0.211-0.547-0.107-0.173-0.248-0.314-0.416-0.418l-0.005-0.003-0.589-0.126c-0.168 0-0.337 0.084-0.505 0.211zM17.937 29.179h-0.632c-0.168-0.084-0.337-0.211-0.463-0.379s-0.211-0.379-0.253-0.632l-0.253-1.684 0.379-0.042 0.253 1.6c0 0.295 0.168 0.505 0.337 0.674 0.168 0.126 0.379 0.168 0.632 0.126l0.589-0.211c0.126-0.126 0.211-0.253 0.253-0.421 0.084-0.168 0.084-0.337 0.042-0.547l-0.211-1.516 0.379-0.042 0.421 2.821-0.337 0.084-0.126-0.8 0.084 0.126c-0.084 0.253-0.211 0.421-0.379 0.547-0.168 0.168-0.421 0.253-0.674 0.295zM14.611 26.316c0.295 0 0.505 0.126 0.716 0.295 0.322 0.265 0.525 0.663 0.525 1.108 0 0.084-0.007 0.167-0.021 0.248l0.001-0.009c0 0.295-0.126 0.547-0.295 0.758-0.126 0.168-0.337 0.337-0.589 0.421-0.211 0.084-0.463 0.126-0.758 0.084s-0.505-0.168-0.716-0.295c-0.32-0.272-0.522-0.675-0.522-1.125 0-0.078 0.006-0.155 0.018-0.23l-0.001 0.008c0-0.295 0.126-0.547 0.295-0.758 0.126-0.211 0.337-0.337 0.589-0.421 0.211-0.126 0.505-0.126 0.758-0.084zM14.568 26.653l-0.547 0.042c-0.211 0.084-0.337 0.211-0.421 0.337-0.168 0.168-0.211 0.337-0.253 0.589l0.042 0.589c0.084 0.168 0.168 0.337 0.337 0.421 0.126 0.126 0.295 0.211 0.505 0.253 0.048 0.008 0.103 0.012 0.159 0.012 0.348 0 0.657-0.169 0.849-0.43l0.002-0.003c0.126-0.126 0.168-0.337 0.211-0.547s0-0.421-0.042-0.589c-0.084-0.211-0.168-0.337-0.337-0.463-0.126-0.126-0.295-0.168-0.505-0.211zM12.211 25.811l-0.421 3.032-0.295-0.168 0.421-2.821 0.126 0.084-2.189 1.895-0.295-0.168 0.421-2.821 0.126 0.084-2.105 1.853-0.337-0.168 2.316-2.021 0.337 0.211-0.379 2.653-0.084-0.084 2.063-1.726 0.295 0.168zM7.621 22.189l0.337 0.589 0.084 0.589h-0.379c0-0.381-0.127-0.733-0.34-1.015l0.003 0.004-0.421-0.421c-0.042-0.015-0.090-0.024-0.139-0.024-0.108 0-0.207 0.041-0.282 0.108l0-0c-0.084 0.042-0.126 0.126-0.126 0.211l0.042 0.295 0.168 0.379c0.077 0.18 0.163 0.417 0.238 0.66l0.015 0.056v0.379l-0.295 0.295c-0.126 0.084-0.253 0.126-0.421 0.126-0.157-0.004-0.301-0.051-0.425-0.128l0.003 0.002c-0.168-0.084-0.337-0.253-0.463-0.421-0.218-0.28-0.369-0.624-0.42-1l-0.001-0.011 0.379-0.042c0 0.168 0 0.295 0.084 0.421l0.211 0.421c0.168 0.211 0.295 0.337 0.421 0.379 0.168 0.042 0.295 0 0.421-0.042l0.126-0.253v-0.295l-0.168-0.337c-0.107-0.212-0.207-0.463-0.286-0.724l-0.009-0.034c-0.004-0.028-0.007-0.060-0.007-0.093 0-0.227 0.12-0.426 0.299-0.537l0.003-0.002c0.126-0.126 0.253-0.168 0.421-0.168s0.295 0.084 0.463 0.168c0.168 0.126 0.337 0.253 0.463 0.463zM3.453 20.547c-0.084-0.253-0.126-0.421-0.084-0.632 0-0.211 0.084-0.421 0.211-0.547 0.126-0.168 0.337-0.295 0.589-0.379l1.558-0.589 0.168 0.379-1.558 0.547c-0.253 0.126-0.421 0.295-0.547 0.463-0.084 0.211-0.084 0.421 0 0.674l0.295 0.463c0.126 0.126 0.295 0.168 0.463 0.211 0.168 0 0.379 0 0.589-0.084l1.389-0.505 0.126 0.337-3.789 1.432-0.126-0.379 1.853-0.674-0.126 0.126c-0.211 0-0.421-0.084-0.589-0.253-0.211-0.126-0.337-0.337-0.421-0.589zM5.6 16.758c0 0.295 0 0.547-0.126 0.758-0.235 0.471-0.711 0.791-1.262 0.8h-0.001c-0.295 0-0.547-0.042-0.758-0.168s-0.421-0.295-0.547-0.505c-0.126-0.211-0.211-0.421-0.211-0.716s0-0.547 0.126-0.758c0.243-0.465 0.714-0.782 1.261-0.8l0.002-0c0.253 0 0.505 0 0.758 0.168 0.211 0.084 0.421 0.253 0.547 0.463s0.211 0.463 0.211 0.758zM5.263 16.758c-0.014-0.392-0.249-0.726-0.583-0.882l-0.006-0.003c-0.168-0.084-0.379-0.126-0.589-0.126s-0.421 0.084-0.589 0.211c-0.168 0.084-0.295 0.211-0.379 0.421-0.084 0.126-0.126 0.295-0.084 0.505 0 0.001 0 0.002 0 0.003 0 0.396 0.219 0.741 0.542 0.921l0.005 0.003c0.211 0.084 0.421 0.126 0.632 0.084 0.211 0 0.421-0.042 0.589-0.168 0.126-0.084 0.253-0.253 0.337-0.421 0.084-0.126 0.126-0.337 0.126-0.547zM5.895 13.347c0 0.253-0.126 0.421-0.295 0.632-0.158 0.159-0.357 0.277-0.581 0.335l-0.009 0.002c-0.126 0.034-0.271 0.053-0.421 0.053s-0.295-0.020-0.433-0.056l0.012 0.003c-0.281-0.083-0.522-0.229-0.716-0.421l0 0c-0.168-0.126-0.295-0.337-0.379-0.547v-0.716c0.084-0.253 0.211-0.463 0.379-0.674 0.168-0.166 0.383-0.285 0.623-0.335l0.008-0.001c0.211-0.084 0.505-0.084 0.758 0 0.295 0.042 0.547 0.168 0.716 0.337s0.295 0.421 0.379 0.632v0.758zM6.568 15.032l-3.789-0.926 0.042-0.379 0.842 0.211 0.547 0.168 0.589 0.084 1.853 0.463-0.084 0.421zM5.6 13.305v-0.589c-0.084-0.168-0.168-0.337-0.295-0.421-0.168-0.168-0.337-0.253-0.547-0.295-0.211-0.084-0.421-0.084-0.589 0-0.38 0.077-0.682 0.351-0.798 0.708l-0.002 0.007v0.547c0.042 0.211 0.168 0.337 0.295 0.463 0.126 0.168 0.295 0.253 0.547 0.295h0.589c0.168-0.042 0.337-0.126 0.463-0.253l0.295-0.505zM5.684 7.579c0.126-0.168 0.295-0.295 0.505-0.421 0.168-0.042 0.379-0.084 0.547 0 0.211 0 0.421 0.084 0.632 0.295l1.305 1.011-0.253 0.337-1.263-1.053c-0.211-0.168-0.421-0.253-0.674-0.253-0.249 0.037-0.459 0.177-0.587 0.376l-0.002 0.003c-0.126 0.126-0.211 0.295-0.211 0.463-0.042 0.168 0 0.337 0.042 0.505 0.084 0.168 0.168 0.295 0.379 0.421l1.137 0.968-0.211 0.295-2.232-1.811 0.211-0.253 0.632 0.463h-0.168c-0.084-0.253-0.126-0.421-0.084-0.674 0-0.253 0.126-0.421 0.295-0.674zM10.021 7.495c-0.211 0.168-0.421 0.253-0.716 0.295-0.027 0.002-0.058 0.003-0.089 0.003-0.511 0-0.959-0.268-1.213-0.67l-0.004-0.006c-0.168-0.253-0.253-0.505-0.253-0.758s0-0.463 0.126-0.716c0.126-0.211 0.295-0.421 0.505-0.547 0.253-0.168 0.505-0.253 0.758-0.295 0.253 0 0.463 0.042 0.716 0.168 0.211 0.084 0.421 0.253 0.589 0.505s0.253 0.505 0.253 0.758c0 0.253 0 0.463-0.126 0.716-0.126 0.211-0.295 0.421-0.547 0.547zM9.853 7.242c0.168-0.126 0.295-0.253 0.379-0.421s0.084-0.379 0.084-0.547c0-0.211-0.084-0.421-0.211-0.589l-0.421-0.421c-0.211-0.084-0.379-0.084-0.547-0.084-0.211 0-0.379 0.084-0.547 0.168-0.283 0.192-0.467 0.512-0.467 0.875 0 0.033 0.002 0.066 0.004 0.098l-0-0.004c0 0.211 0.084 0.421 0.211 0.589l0.421 0.421 0.547 0.084c0.211 0 0.379-0.084 0.547-0.168zM12.211 6.232l-1.768-2.526 0.379-0.084 1.558 2.358h-0.126l0.337-2.779 0.337-0.084 1.6 2.358h-0.211l0.337-2.821 0.337-0.084-0.379 3.074-0.337 0.084-1.558-2.232h0.126l-0.337 2.653-0.379 0.084zM18.021 5.853l-0.632-0.253c-0.211-0.126-0.337-0.253-0.421-0.379l0.211-0.253c0.236 0.272 0.554 0.467 0.915 0.545l0.011 0.002h0.632c0.126-0.084 0.211-0.168 0.253-0.295 0-0.126 0-0.211-0.084-0.295l-0.211-0.168-0.337-0.168c-0.293-0.12-0.529-0.233-0.757-0.357l0.041 0.021-0.211-0.295v-0.421c0-0.126 0.084-0.253 0.211-0.379 0.113-0.105 0.257-0.18 0.416-0.21l0.005-0.001h0.632c0.378 0.086 0.705 0.263 0.97 0.507l-0.001-0.001-0.295 0.337c-0.205-0.198-0.461-0.345-0.746-0.418l-0.012-0.003c-0.253-0.084-0.463-0.084-0.589 0-0.126 0.052-0.22 0.16-0.252 0.292l-0.001 0.003v0.253l0.253 0.211 0.337 0.168c0.277 0.119 0.512 0.246 0.735 0.39l-0.019-0.011c0.161 0.116 0.264 0.303 0.264 0.513 0 0.042-0.004 0.083-0.012 0.122l0.001-0.004c-0.042 0.168-0.126 0.295-0.253 0.421-0.126 0.084-0.253 0.168-0.421 0.168-0.211 0.042-0.421 0-0.674 0zM22.316 4.295c0.168 0.084 0.337 0.211 0.421 0.421 0.168 0.126 0.211 0.295 0.211 0.505s-0.042 0.421-0.168 0.674l-0.8 1.516-0.337-0.211 0.758-1.432c0.126-0.253 0.168-0.505 0.126-0.716-0.084-0.211-0.211-0.379-0.463-0.505-0.168-0.084-0.379-0.126-0.547-0.126-0.006-0-0.012-0-0.019-0-0.164 0-0.318 0.047-0.447 0.129l0.003-0.002-0.379 0.421-0.674 1.389-0.379-0.211 1.895-3.579 0.337 0.168-0.884 1.768v-0.168c0.168-0.126 0.379-0.211 0.589-0.253 0.253 0 0.463 0.042 0.716 0.211zM23.242 8.547c-0.211-0.211-0.337-0.421-0.421-0.674-0.031-0.111-0.049-0.239-0.049-0.371 0-0.42 0.181-0.798 0.469-1.059l0.001-0.001c0.168-0.168 0.421-0.337 0.632-0.421h0.758c0.253 0.084 0.421 0.253 0.674 0.421 0.168 0.211 0.337 0.421 0.421 0.674v0.716c-0.084 0.253-0.211 0.505-0.421 0.674-0.211 0.211-0.421 0.337-0.674 0.421s-0.505 0.084-0.758 0c-0.211-0.084-0.421-0.211-0.632-0.421zM23.453 8.295c0.168 0.126 0.337 0.253 0.505 0.295h0.547c0.168-0.084 0.379-0.168 0.505-0.337 0.168-0.168 0.295-0.337 0.337-0.547v-0.505c-0.042-0.211-0.126-0.379-0.295-0.505-0.192-0.2-0.461-0.324-0.76-0.324-0.318 0-0.604 0.141-0.797 0.365l-0.001 0.001c-0.168 0.168-0.253 0.337-0.295 0.505-0.084 0.211-0.084 0.421 0 0.547 0 0.211 0.126 0.337 0.253 0.505zM25.263 11.2c-0.126-0.211-0.168-0.421-0.168-0.632 0-0.253 0.084-0.463 0.211-0.674s0.337-0.421 0.632-0.547c0.219-0.124 0.478-0.2 0.755-0.21l0.003-0c0.253 0 0.463 0.042 0.674 0.168s0.337 0.295 0.463 0.547c0.139 0.2 0.222 0.448 0.222 0.716s-0.083 0.516-0.225 0.72l0.003-0.004c-0.168 0.211-0.337 0.379-0.589 0.505s-0.505 0.211-0.758 0.211c-0.253 0-0.505-0.084-0.716-0.211s-0.421-0.337-0.505-0.589zM23.579 10.4l3.495-1.853 0.168 0.337-0.758 0.421-0.547 0.211-0.463 0.337-1.684 0.884-0.211-0.337zM25.516 11.032c0.084 0.168 0.211 0.337 0.379 0.421l0.505 0.168c0.211 0 0.421-0.084 0.589-0.168 0.211-0.126 0.379-0.253 0.463-0.421 0.089-0.151 0.141-0.333 0.141-0.526s-0.052-0.375-0.144-0.531l0.003 0.005c-0.084-0.168-0.211-0.337-0.337-0.421-0.168-0.084-0.337-0.168-0.547-0.168s-0.421 0.084-0.589 0.168c-0.173 0.107-0.314 0.248-0.418 0.416l-0.003 0.005c-0.126 0.126-0.168 0.337-0.211 0.505 0 0.168 0.042 0.379 0.168 0.547z"></path>
        </symbol>
        <symbol id="icon-hero-arrow" viewBox="0 0 42 32">
            <path d="M40.589 2.695c0-0.505-0.168-0.842-0.674-1.011l-7.411-1.179c-0.051-0.011-0.109-0.017-0.168-0.017-0.474 0-0.859 0.385-0.859 0.859 0 0.415 0.294 0.761 0.685 0.841l6.742 1.18-1.011 6.737c0 0.465 0.377 0.842 0.842 0.842s0.842-0.377 0.842-0.842v0l1.011-7.411zM2.189 30.989l38.063-27.789-0.842-1.347-38.232 27.789 1.011 1.347z"></path>
        </symbol>
        <symbol id="icon-Arrow-1" viewBox="0 0 47 32">
            <path d="M32.058 11.302c0.040-0.174-0.068-0.347-0.242-0.387l-2.827-0.653c-0.174-0.040-0.347 0.068-0.387 0.242s0.068 0.347 0.242 0.387l2.513 0.58-0.58 2.513c-0.040 0.174 0.068 0.347 0.242 0.387s0.347-0.068 0.387-0.242l0.653-2.827zM15.509 21.755l16.406-10.252-0.342-0.547-16.406 10.252 0.342 0.547z"></path>
        </symbol>
        <symbol id="icon-footer-logo" viewBox="0 0 41 32">
            <path d="M10.328 7.834c3.239 0 5.71 0.794 7.415 2.383 1.738 1.589 2.604 3.956 2.604 7.106v14.124h-4.017v-3.090c-0.746 1.113-1.782 1.978-3.001 2.499l-0.044 0.017c-1.287 0.533-2.781 0.842-4.347 0.842-0.101 0-0.202-0.001-0.302-0.004l0.015 0c-2.621 0-4.723-0.634-6.312-1.898-1.431-1.129-2.342-2.864-2.342-4.811 0-0.062 0.001-0.124 0.003-0.185l-0 0.009c0-2.058 0.75-3.708 2.251-4.943 1.501-1.269 3.884-1.898 7.15-1.898h6.709v-0.839c0-1.821-0.53-3.222-1.589-4.193s-2.621-1.457-4.679-1.457c-1.379 0-2.737 0.237-4.061 0.706-1.324 0.441-2.444 1.048-3.354 1.81l-1.766-3.178c1.208-0.971 2.648-1.71 4.326-2.207 1.565-0.504 3.366-0.795 5.234-0.795 0.037 0 0.075 0 0.112 0l-0.006-0zM9.357 28.447c1.617 0 3.018-0.353 4.193-1.059 1.158-0.727 2.049-1.788 2.545-3.047l0.015-0.043v-3.266h-6.532c-3.586 0-5.385 1.208-5.385 3.619 0 1.175 0.458 2.102 1.368 2.781s2.179 1.015 3.796 1.015z"></path>
            <path d="M40.607 19.884c0 0.326-0.028 0.75-0.088 1.28h-18.979c0.265 2.058 1.159 3.724 2.692 4.988 1.561 1.236 3.487 1.854 5.782 1.854 2.797 0 5.048-0.938 6.753-2.825l2.339 2.737c-1.061 1.226-2.393 2.189-3.904 2.8l-0.069 0.024c-1.561 0.646-3.31 0.971-5.252 0.971-2.472 0-4.662-0.497-6.577-1.501-1.874-1-3.389-2.458-4.429-4.229l-0.028-0.052c-0.973-1.725-1.546-3.787-1.546-5.983 0-0.069 0.001-0.138 0.002-0.207l-0 0.010c0-2.262 0.497-4.309 1.501-6.135 1.032-1.821 2.428-3.239 4.193-4.237 1.793-1.032 3.807-1.545 6.047-1.545 2.234 0 4.221 0.513 5.959 1.545 1.755 1 3.156 2.444 4.078 4.181l0.027 0.056c0.999 1.821 1.501 3.917 1.501 6.268zM29.043 11.41c-2.030 0-3.735 0.618-5.12 1.854-1.327 1.23-2.207 2.926-2.381 4.826l-0.002 0.029h15.007c-0.187-1.921-1.084-3.603-2.421-4.805l-0.007-0.006c-1.352-1.269-3.046-1.898-5.076-1.898z"></path>
            <path d="M37.517 3.31h-15.448v-3.31h15.448v3.31z"></path>
        </symbol>
        <symbol id="icon-facebook" viewBox="0 0 32 32">
            <path stroke-linejoin="round" stroke-linecap="round" stroke-miterlimit="4" stroke-width="2.2857" d="M24 2.629h-4c-0 0-0.001 0-0.001 0-3.661 0-6.629 2.968-6.629 6.629 0 0.040 0 0.080 0.001 0.12l-0-0.006v4h-4v5.257h4v10.743h5.257v-10.743h4l1.371-5.257h-5.371v-4c0-0.757 0.614-1.371 1.371-1.371v0h4v-5.371z"></path>
        </symbol>
        <symbol id="icon-instagram" viewBox="0 0 32 32">
            <path stroke-linejoin="round" stroke-linecap="round" stroke-miterlimit="4" stroke-width="2.2857" d="M22.629 2.629h-13.257c-0.034-0.001-0.075-0.001-0.115-0.001-3.661 0-6.629 2.968-6.629 6.629 0 0.041 0 0.081 0.001 0.121l-0-0.006v13.257c0 3.771 2.971 6.743 6.743 6.743h13.257c3.771 0 6.743-2.971 6.743-6.743v-13.257c0-3.771-2.971-6.743-6.743-6.743z"></path>
            <path stroke-linejoin="round" stroke-linecap="round" stroke-miterlimit="4" stroke-width="2.2857" d="M21.371 15.2c0.058 0.296 0.091 0.635 0.091 0.983 0 2.967-2.405 5.371-5.371 5.371-2.79 0-5.082-2.126-5.346-4.847l-0.002-0.022c-0.015-0.151-0.024-0.326-0.024-0.503 0-2.967 2.405-5.371 5.371-5.371 2.619 0 4.8 1.874 5.275 4.355l0.005 0.034zM23.314 8.686v0"></path>
        </symbol>
        <symbol id="icon-close-menu" viewBox="0 0 32 32">
            <path stroke-linejoin="round" stroke-linecap="round" stroke-miterlimit="4" stroke-width="2.6667" d="M24 8l-16 16M8 8l16 16"></path>
        </symbol>
        <symbol id="icon-pop-up" viewBox="0 0 58 32">
            <path fill="#f58b3d" style="fill: var(--color1, #f58b3d)" opacity="0.254531" d="M46.999 25.599c0.539 3.691-12.54 6.099-23.798 4.419s-16.423-8.242-11.051-11.738c5.372-3.496 34.309 3.628 34.849 7.319z"></path>
            <path fill="#f58b3d" style="fill: var(--color1, #f58b3d)" d="M30.819 10.218c0.204-0.142 0.519-0.052 0.724 0.032 0.079 0.032 0.281 0.136 0.43 0.253-0.020-0.081-0.037-0.162-0.053-0.245-0.063-0.338-0.107-0.682-0.128-1.025-0.005-0.089 0.002-0.189 0.009-0.29v0c0.002-0.034 0.005-0.069 0.007-0.103-0.008-0.008-0.014-0.019-0.016-0.034-0.001 0.006-0.001 0.011-0.002 0.015-0.001 0.006-0.001 0.009-0.002 0.010s-0.003-0.002-0.007-0.008c-0.001-0.002-0.003-0.005-0.005-0.007-0.151-0.207-0.279-0.441-0.296-0.698-0.015-0.218 0.181-0.63 0.458-0.344 0.124 0.127 0.092 1.022-0.094 1.077 0.050 0.296 0.112 0.592 0.191 0.884 0.012-0.002 0.024-0.002 0.035-0.001-0.001-0.073-0.001-0.152 0.002-0.179 0.028-0.235 0.242-0.711 0.583-0.619 0.262 0.071 0.101 0.364 0.012 0.492-0.144 0.206-0.306 0.296-0.512 0.403-0.004 0.044-0.035 0.070-0.072 0.079 0.138 0.472 0.319 0.932 0.556 1.367l0.006-0.028c0.030-0.132 0.065-0.286 0.087-0.318 0.116-0.169 0.373-0.376 0.61-0.276 0.498 0.21-0.042 0.815-0.466 0.881-0.018 0.022-0.036 0.040-0.056 0.050 0.082 0.131 0.17 0.26 0.264 0.385 0.141 0.188 0.293 0.376 0.452 0.563 0.005-0.146 0.068-0.471 0.086-0.506 0.109-0.212 0.422-0.431 0.676-0.28 0.286 0.17 0.027 0.491-0.136 0.637-0.067 0.060-0.397 0.278-0.514 0.279 0.384 0.44 0.808 0.872 1.24 1.289-0.036-0.187-0.082-0.7-0.077-0.757 0.027-0.294 0.238-0.765 0.654-0.65 0.404 0.111 0.225 0.6 0.087 0.833-0.084 0.141-0.199 0.284-0.339 0.383-0.025 0.018-0.058 0.032-0.091 0.047-0.040 0.017-0.079 0.035-0.105 0.058-0.023 0.021-0.030 0.044-0.037 0.067-0.007 0.025-0.015 0.049-0.041 0.070 0.233 0.224 0.468 0.444 0.699 0.657 0.109 0.101 0.22 0.2 0.333 0.297 0.061-0.023 0.149 0.007 0.144 0.087-0.001 0.012-0.004 0.022-0.007 0.031 0.085 0.072 0.171 0.144 0.257 0.216-0.002-0.021-0.001-0.050 0.003-0.090-0.062 0.081-0.060-0.037-0.057-0.127 0.001-0.032 0.001-0.060-0.001-0.075-0.009-0.058-0.021-0.115-0.033-0.172-0.025-0.122-0.050-0.243-0.049-0.369 0.003-0.267 0.187-0.715 0.576-0.556 0.357 0.146 0.227 0.542 0.093 0.79-0.085 0.157-0.202 0.297-0.324 0.431-0.022 0.024-0.046 0.056-0.070 0.089-0.036 0.048-0.071 0.095-0.096 0.112 0.332 0.272 0.672 0.537 1.011 0.801v0c0.152 0.118 0.304 0.237 0.455 0.356 0.007-0.026 0.012-0.052 0.017-0.076-0.010 0.010-0.022 0.014-0.039 0.013-0.004-0.020-0.011-0.047-0.019-0.079-0.093-0.39-0.378-1.58 0.393-1.349 0.565 0.169 0.166 1.205-0.255 1.567 0.256 0.202 0.509 0.407 0.757 0.618 0.179 0.153 0.353 0.311 0.52 0.474-0.087-0.211-0.168-0.485-0.114-0.702 0.078-0.317 0.443-0.616 0.799-0.436 0.444 0.226 0.102 0.534-0.218 0.823-0.163 0.148-0.322 0.29-0.367 0.414 0.531 0.535 0.985 1.13 1.288 1.807 0.33 0.736 0.636 1.726 0.466 2.55 0.031-0.362-0.102-0.817-0.196-1.137-0.013-0.043-0.025-0.084-0.036-0.122-0.141-0.496-0.341-0.978-0.605-1.429-0.423-0.723-0.981-1.336-1.626-1.893-0.147 0.047-0.306 0.134-0.438 0.205-0.081 0.044-0.152 0.083-0.203 0.103-0.247 0.097-0.72 0.237-0.878-0.070-0.155-0.302 0.24-0.471 0.484-0.539 0.236-0.065 0.449-0.058 0.67-0.004-0.341-0.277-0.691-0.546-1.041-0.814v0c-0.064-0.049-0.128-0.099-0.193-0.148-0.089 0.067-0.187 0.163-0.291 0.266-0.331 0.325-0.723 0.71-1.073 0.396-0.528-0.475 0.482-0.958 0.912-0.92 0.053 0.005 0.104 0.015 0.154 0.029-0.439-0.341-0.871-0.69-1.28-1.062-0.073 0.012-0.19 0.111-0.33 0.23-0.315 0.267-0.749 0.634-1.076 0.345-0.236-0.209-0.155-0.534 0.073-0.72s0.561-0.186 0.843-0.124c0.122 0.027 0.234 0.079 0.339 0.142 0.004 0 0.009 0 0.013 0.001-0.402-0.371-0.807-0.75-1.196-1.142-0.007 0.002-0.014 0.004-0.021 0.006-0.024 0.026-0.063 0.036-0.099 0.030-0.020 0.006-0.040 0.013-0.061 0.019-0.309 0.098-0.705 0.223-1.013 0.169-0.226-0.040-0.432-0.208-0.24-0.416 0.156-0.169 0.579-0.145 0.785-0.105 0.101 0.020 0.21 0.076 0.32 0.133 0.046 0.024 0.093 0.048 0.138 0.069 0.012-0.022 0.033-0.036 0.056-0.043-0.385-0.394-0.752-0.801-1.085-1.227-0.101 0.014-0.213 0.055-0.328 0.097-0.277 0.101-0.575 0.209-0.789-0.024-0.316-0.344 0.278-0.544 0.56-0.511 0.095 0.011 0.189 0.036 0.28 0.068-0.242-0.35-0.428-0.724-0.557-1.117-0.001 0.001-0.002 0.001-0.004 0.002v0c-0.002 0.001-0.004 0.002-0.006 0.003 0.002-0.001 0.004-0.002 0.005-0.003s0.003-0.002 0.004-0.002c-0.013-0.039-0.025-0.079-0.037-0.118-0.022-0.011-0.043-0.020-0.052-0.023 0.128 0.081-0.413 0.121-0.514 0.128-0.224 0.016-0.524 0.023-0.688-0.146-0.138-0.141-0.13-0.35 0.039-0.468zM41.124 22.106c-0.010 0.119-0.033 0.229-0.077 0.319 0.033-0.103 0.058-0.209 0.077-0.319z"></path>
            <path fill="#f1f447" style="fill: var(--color2, #f1f447)" opacity="0.2" d="M20.656 2.591c-0.149-0.103-0.379-0.037-0.529 0.024-0.058 0.023-0.205 0.098-0.314 0.183 0.014-0.058 0.027-0.117 0.039-0.177 0.046-0.244 0.078-0.494 0.094-0.741 0.004-0.065-0.001-0.137-0.006-0.21v0c-0.002-0.025-0.003-0.050-0.005-0.074 0.006-0.006 0.010-0.014 0.012-0.025 0.001 0.005 0.001 0.008 0.001 0.011 0 0.004 0.001 0.007 0.001 0.007s0.002-0.002 0.005-0.006c0.001-0.002 0.002-0.003 0.004-0.005 0.111-0.15 0.204-0.319 0.216-0.504 0.011-0.157-0.132-0.455-0.334-0.249-0.091 0.092-0.067 0.739 0.068 0.779-0.036 0.214-0.082 0.428-0.14 0.64-0.009-0.001-0.017-0.002-0.026 0 0.001-0.053 0.001-0.11-0.001-0.13-0.020-0.17-0.177-0.514-0.426-0.447-0.191 0.052-0.074 0.263-0.009 0.356 0.105 0.149 0.223 0.214 0.373 0.291 0.003 0.032 0.026 0.051 0.053 0.057-0.101 0.341-0.233 0.674-0.406 0.988l-0.005-0.020c-0.022-0.095-0.048-0.207-0.064-0.23-0.085-0.122-0.272-0.271-0.445-0.199-0.363 0.152 0.031 0.589 0.34 0.637 0.013 0.016 0.026 0.029 0.041 0.036-0.060 0.095-0.124 0.188-0.193 0.278-0.103 0.136-0.214 0.272-0.33 0.407-0.004-0.106-0.049-0.341-0.062-0.366-0.079-0.153-0.308-0.311-0.493-0.202-0.209 0.123-0.020 0.355 0.099 0.46 0.049 0.043 0.29 0.201 0.375 0.202-0.281 0.318-0.591 0.631-0.906 0.933 0.026-0.135 0.061-0.506 0.057-0.548-0.020-0.213-0.173-0.553-0.477-0.47-0.295 0.080-0.165 0.434-0.064 0.603 0.061 0.102 0.146 0.206 0.247 0.277 0.018 0.013 0.042 0.023 0.066 0.034 0.029 0.013 0.058 0.025 0.076 0.042 0.017 0.015 0.022 0.032 0.027 0.049s0.011 0.035 0.030 0.050c-0.17 0.162-0.342 0.321-0.511 0.476-0.080 0.073-0.161 0.144-0.243 0.215-0.045-0.017-0.109 0.005-0.105 0.063 0 0.008 0.003 0.016 0.006 0.022-0.062 0.052-0.125 0.104-0.188 0.156 0.001-0.015 0.001-0.036-0.002-0.065 0.045 0.058 0.043-0.027 0.042-0.092 0-0.023-0.001-0.043 0.001-0.054 0.007-0.042 0.015-0.083 0.024-0.124 0.019-0.088 0.037-0.176 0.036-0.267-0.002-0.193-0.137-0.517-0.42-0.402-0.261 0.106-0.166 0.392-0.068 0.571 0.062 0.114 0.148 0.215 0.236 0.312 0.016 0.017 0.034 0.041 0.051 0.064 0.026 0.035 0.051 0.068 0.070 0.081-0.242 0.197-0.49 0.388-0.738 0.58v0c-0.111 0.086-0.222 0.171-0.333 0.258-0.005-0.019-0.009-0.038-0.012-0.055 0.007 0.007 0.016 0.010 0.028 0.010 0.003-0.014 0.008-0.034 0.014-0.057 0.068-0.282 0.277-1.143-0.286-0.976-0.413 0.123-0.122 0.871 0.186 1.133-0.187 0.146-0.372 0.295-0.553 0.447-0.131 0.11-0.258 0.225-0.38 0.343 0.063-0.153 0.123-0.351 0.084-0.508-0.057-0.229-0.323-0.445-0.583-0.315-0.324 0.163-0.075 0.386 0.159 0.595 0.119 0.107 0.235 0.21 0.268 0.299-0.388 0.387-0.72 0.817-0.941 1.307-0.241 0.533-0.465 1.248-0.342 1.844-0.023-0.262 0.075-0.591 0.144-0.822 0.009-0.031 0.018-0.061 0.026-0.089 0.103-0.358 0.25-0.707 0.443-1.033 0.309-0.523 0.717-0.967 1.188-1.37 0.107 0.034 0.224 0.097 0.32 0.148 0.059 0.032 0.111 0.060 0.148 0.074 0.18 0.070 0.526 0.171 0.641-0.051 0.113-0.218-0.175-0.341-0.353-0.389-0.172-0.047-0.328-0.041-0.489-0.003 0.249-0.201 0.505-0.395 0.76-0.589 0.047-0.036 0.094-0.071 0.141-0.107 0.065 0.048 0.137 0.118 0.213 0.192 0.241 0.235 0.527 0.513 0.783 0.286 0.386-0.344-0.352-0.692-0.666-0.665-0.039 0.003-0.076 0.011-0.112 0.021 0.321-0.247 0.636-0.499 0.935-0.769 0.054 0.009 0.139 0.080 0.241 0.166v0c0.23 0.193 0.547 0.458 0.785 0.249 0.172-0.151 0.113-0.386-0.053-0.521s-0.41-0.135-0.615-0.089c-0.089 0.020-0.171 0.057-0.248 0.103-0.003 0-0.006 0-0.009 0 0.294-0.268 0.589-0.542 0.874-0.826 0.005 0.001 0.010 0.003 0.015 0.004 0.017 0.019 0.046 0.026 0.072 0.022 0.014 0.004 0.029 0.009 0.044 0.014v0c0.225 0.070 0.515 0.161 0.739 0.122 0.165-0.029 0.315-0.151 0.176-0.301-0.114-0.122-0.422-0.104-0.573-0.075-0.073 0.014-0.154 0.055-0.234 0.096-0.034 0.017-0.067 0.035-0.101 0.050-0.009-0.016-0.024-0.026-0.041-0.031 0.281-0.285 0.549-0.58 0.793-0.887 0.073 0.010 0.155 0.040 0.239 0.070 0.203 0.073 0.42 0.151 0.576-0.018 0.23-0.249-0.203-0.393-0.409-0.37-0.070 0.008-0.138 0.026-0.204 0.050 0.177-0.253 0.312-0.524 0.407-0.808 0.001 0 0.002 0.001 0.003 0.001s0.003 0.001 0.004 0.002c-0.001-0.001-0.003-0.001-0.004-0.002s-0.002-0.001-0.003-0.002c0.009-0.028 0.019-0.057 0.027-0.086 0.016-0.008 0.031-0.014 0.038-0.017-0.094 0.059 0.301 0.087 0.375 0.092 0.163 0.012 0.382 0.016 0.503-0.105 0.101-0.102 0.095-0.253-0.028-0.338zM13.12 11.167c0.007 0.080 0.029 0.152 0.071 0.212-0.031-0.068-0.054-0.139-0.071-0.212z"></path>
            <path fill="#b45661" style="fill: var(--color3, #b45661)" opacity="0.49" d="M36.709 16.63c0.801-0.038 1.792 0.39 1.878 1.187 0.062 0.579 0.043 1.156 0.139 1.735 0.077 0.462 0.239 0.906 0.461 1.326 0.213 0.405 0.655 0.749 0.77 1.182 0.073 0.276 0.032 0.663-0.069 0.933-0.123 0.328-0.057 0.302 0.187 0.577 0.48 0.539 0.912 1.091 1.218 1.735 0.44 0.927 0.729 2.010 0.565 3.025-0.021 0.129-0.045 0.591-0.239 0.623-0.217 0.036-0.115-0.228-0.104-0.314 0.074-0.545 0.139-1.021 0.050-1.575-0.343-2.136-2.017-3.543-3.108-5.355-0.060-0.093-0.186-0.316-0.275-0.463-0.139-0.232-0.279-0.673-0.467-0.845-0.354-0.324-0.029 0.327 0.040 0.451 0.087 0.157 0.183 0.324 0.273 0.462 0.409 0.639 0.866 1.336 1.288 1.994-1.827 0.381-3.114-1.629-3.604-2.95-0.404-1.089-0.887-3.634 0.995-3.727z"></path>
            <path fill="#e7502f" style="fill: var(--color4, #e7502f)" opacity="0.49" d="M47.448 14.608c-1.339 0.097-2.199 0.906-2.599 2.037-0.216 0.609-0.24 1.236-0.36 1.862-0.18 0.942-0.568 1.657-1.327 2.328-0.235 0.208-0.408 0.421-0.531 0.65-0.244 0.228-0.457 0.486-0.613 0.802-0.199 0.403-0.256 0.886-0.026 1.288 0.062 0.108 0.217 0.325 0.377 0.423-0.6 1.168-0.929 2.448-0.892 3.726 0.023 0.771 0.064 1.543 0.112 2.314 0.013 0.207 0.087 0.549 0.197 0.201 0.101-0.317-0.026-0.816-0.038-1.147-0.057-1.615-0.106-3.084 0.621-4.593 0.076-0.158 0.157-0.315 0.241-0.471 0.005-0.003 0.010-0.006 0.014-0.009 0.003 0.002 0.006 0.005 0.009 0.007 0.005-0.009 0.013-0.019 0.021-0.031 0.024-0.023 0.045-0.052 0.065-0.084 0.064-0.082 0.137-0.178 0.138-0.23 0 0 0-0.001 0-0.001 0.45-0.672 0.965-1.307 1.492-1.929-0.004 0.005 0.571-0.712 0.482-0.316-0.043 0.191-0.466 0.554-0.636 0.756-0.378 0.45-0.821 1.020-1.19 1.571-0.050 0.026-0.12 0.154-0.17 0.25-0.028 0.048-0.054 0.097-0.080 0.14 1.306 0.395 2.322-0.401 3.015-1.326 0.001-0.001 0.002-0.002 0.002-0.003 0.211-0.256 0.427-0.509 0.697-0.712 0.45-0.337 0.932-0.397 1.463-0.563 1.447-0.453 2.063-2.169 2.258-3.443 0.221-1.437-0.858-3.64-2.742-3.498z"></path>
            <path fill="#e7502f" style="fill: var(--color4, #e7502f)" opacity="0.49" d="M44.802 10.585c-1.375 1.309-2.039 3.125-2.565 4.832-0.587 1.907-0.975 3.842-0.99 5.825-0.010 1.302-0.048 2.613 0.035 3.913 0.029 0.462 0.080 0.925 0.16 1.382 0.007 0.038 0.186 1.058 0.357 0.82 0.097-0.135-0.184-1.059-0.205-1.212-0.119-0.866-0.147-1.739-0.141-2.611 0.010-1.436-0.037-2.866 0.122-4.297 0.024-0.214 0.042-0.438 0.098-0.647 0.059-0.222-0.016-0.125 0.176-0.213 0.186-0.086 0.417-0.073 0.61-0.181 0.767-0.426 1.16-1.519 1.465-2.236 0.349-0.82 0.562-1.695 0.731-2.559 0.125-0.634 0.214-1.265 0.264-1.907 0.016-0.203 0.017-0.414 0.060-0.613 0.012-0.054 0.071-0.149 0.068-0.196-0.005-0.101-0.071-0.16-0.076-0.244-0.058 0.047-0.114 0.096-0.169 0.146z"></path>
            <path fill="#e7502f" style="fill: var(--color4, #e7502f)" opacity="0.49" d="M37.306 28.026c0 2.165 1.918 3.92 4.284 3.92s4.284-1.755 4.284-3.92z"></path>
            <path fill="#b45661" style="fill: var(--color3, #b45661)" opacity="0.49" d="M44.527 24.594c1.060-0.071 2.244 0.711 2.756 1.526 0.412 0.657 0.343 1.519 0.088 2.217-0.17 0.467-0.543 1.133-1.163 1.139-0.777 0.008-0.814-0.87-0.829-1.383-0.020-0.682-0.114-1.277-0.702-1.742-0.073-0.057-0.149-0.111-0.225-0.165-0.068-0.048-0.135-0.095-0.2-0.146-0.010-0.008-0.021-0.016-0.031-0.024-0.208-0.16-0.426-0.328-0.453-0.591-0.038-0.382 0.197-0.451 0.557-0.38 0.012 0.002 0.043 0.013 0.086 0.028 0.184 0.064 0.576 0.2 0.501 0.037-0.028-0.061-0.13-0.11-0.259-0.146-0.333-0.033-0.73-0.072-0.844-0.049-1.232 0.247-1.712 1.809-1.839 2.801-0.014 0.107-0.025 0.215-0.035 0.322h-0.226c0.016-0.26 0.037-0.519 0.084-0.776 0.182-0.983 0.749-2.426 1.995-2.586 0.046-0.006 0.215-0.007 0.42 0.004 0.097-0.050 0.206-0.080 0.32-0.087z"></path>
            <path fill="#b45661" style="fill: var(--color3, #b45661)" opacity="0.25" d="M18.539 9.471c0.247-0.322 0.704-1.139 1.051-1.254 0.224-0.074 0.158 0.692 0.161 0.838 0.011 0.565-0.049 1.127-0.124 1.687-0.134 1.011-0.571 1.911-1.171 2.771-0.309 0.443-0.671 0.891-1.172 1.167-0.231 0.127-0.509 0.148-0.737 0.258-0.265 0.128-0.121 0.024-0.241 0.278-0.166 0.351-0.219 0.805-0.296 1.18-0.353 1.722-1.208 10.823-1.059 12.574 0.013 0.155-0.223 0.192-0.235 0.003-0.063-1.005 0.48-7.963 0.754-10.238s0.551-4.286 0.829-5.073c0.337-0.955 0.947-2.104 1.454-2.994 0.236-0.414 0.492-0.813 0.785-1.196z"></path>
            <path fill="#f1f447" style="fill: var(--color2, #f1f447)" opacity="0.25" d="M20.369 20.631c0.642-0.431 1.337 0.382 0.756 0.814-0.321 0.238-0.657 0.154-0.846-0.045-0.123 0.137-0.237 0.28-0.348 0.401-0.336 0.368-0.654 0.745-0.957 1.131-0.631 0.801-1.171 1.648-1.736 2.479-0.558 0.82-1.111 1.645-1.616 2.486-0.428 0.713-0.999 1.551-1.146 2.332 0.222-1.657 1.066-3.249 2.072-4.71 0.997-1.449 2.141-3.031 3.685-4.174-0.157-0.211-0.161-0.513 0.137-0.713z"></path>
            <path fill="#b45661" style="fill: var(--color3, #b45661)" opacity="0.25" d="M8.191 16.591c0.359 0.064 0.946 0.807 1.242 1.091 0.352 0.337 0.671 0.695 0.972 1.071 0.648 0.809 1.227 1.669 1.72 2.566 0.803 1.462 1.446 2.963 1.913 4.556 0.286 0.975 0.471 1.985 0.58 2.988 0.021 0.189 0.238 1.648-0.075 1.687-0.281 0.035-0.194-1.108-0.208-1.263-0.153-1.754-0.612-3.461-1.251-5.114-0.139-0.36-0.268-0.801-0.491-1.125-0.16-0.233-0.001-0.152-0.283-0.24-0.242-0.076-0.517-0.057-0.764-0.15-0.538-0.202-0.968-0.593-1.345-0.987-0.733-0.766-1.314-1.594-1.617-2.575-0.168-0.544-0.322-1.091-0.408-1.652-0.022-0.145-0.216-0.894 0.015-0.852z"></path>
            <path fill="#e7502f" style="fill: var(--color4, #e7502f)" opacity="0.25" d="M9.609 4.223c1.353 2.146 2.464 4.504 3.182 6.893 0.435 1.447 0.739 2.932 1.041 4.406 0.468 2.282 0.91 4.565 1.036 6.888 0.127 2.336 0.377 5.031-0.459 7.282 0.418-2.285 0.020-4.717-0.050-7.016-0.034-1.098-0.131-2.184-0.259-3.275-0.124-1.058-0.327-2.112-0.516-3.162-0.092-0.511-0.189-1.022-0.287-1.532-0.029-0.152-0.042-0.604-0.147-0.708s-0.648-0.147-0.819-0.224c-0.343-0.155-0.665-0.374-0.95-0.607-0.547-0.445-1.023-1.027-1.398-1.6-0.869-1.327-1.216-2.946-1.199-4.483 0.003-0.298 0.528-3.511 0.317-3.555 0.013-0.014 0.025-0.028 0.036-0.042 0.159 0.244 0.316 0.49 0.471 0.737z"></path>
            <path fill="#e7502f" style="fill: var(--color4, #e7502f)" opacity="0.25" d="M24.21 11.965c0.021-0.028 0.157-0.219 0.088-0.207 0.139-0.025-0.192 0.211 0.156 0.066-0.165 0.142-0.070 0.327-0.067 0.519 0.003 0.311-0.053 0.62-0.117 0.924-0.101 0.481-0.252 0.949-0.471 1.397-0.477 0.976-1.287 1.915-2.248 2.524-0.475 0.301-0.94 0.404-1.481 0.542-0.342 0.088-0.369 0.249-0.551 0.553-0.378 0.632-0.749 1.262-1.082 1.916-0.398 0.78-0.784 1.562-1.148 2.356-1.228 2.675-2.227 5.447-2.751 8.316-0.013-1.69 0.415-3.432 0.954-5.043 0.393-1.174 0.904-2.306 1.449-3.426 0.132-0.272 0.332-0.62 0.388-0.92 0.039-0.21-0.081-0.412-0.136-0.633-0.215-0.861-0.199-1.826-0.011-2.692 0.208-0.955 0.808-1.398 1.824-1.533 0.371-0.049 0.844-0.031 1.184-0.176 0.371-0.158 0.524-0.676 0.735-1.009 0.567-0.894 1.24-1.752 2.013-2.506 0.214-0.209 0.444-0.401 0.689-0.58 0.154-0.113 0.48-0.251 0.584-0.39z"></path>
            <path fill="#f1f447" style="fill: var(--color2, #f1f447)" opacity="0.25" d="M12.53 29.354c-0.026-0.162 0.111-0.308 0.29-0.308h3.605c0.179 0 0.316 0.146 0.29 0.308l-0.279 1.728c-0.085 0.527-0.579 0.917-1.161 0.917h-1.305c-0.582 0-1.076-0.39-1.161-0.917l-0.279-1.728z"></path>
            <path fill="#f58b3d" style="fill: var(--color1, #f58b3d)" d="M9.571 29.93c0 1.143 0.099 2.070 1.422 2.070s1.422-0.927 1.422-2.070z"></path>
            <path fill="#f58b3d" style="fill: var(--color1, #f58b3d)" d="M11.387 29.217c-0.049 0.077-0.092 0.155-0.13 0.234-0.001-0.164 0.009-0.328 0.036-0.496 0.046-0.286 0.117-0.571 0.183-0.855 0.048-0.204 0.045-0.571 0.225-0.734 0.050-0.035 0.061 0.034 0.061 0.064 0.001 0.006 0-0.122-0.048-0.1-0.286 0.135-0.378 0.56-0.47 0.772-0.134 0.31-0.247 0.628-0.294 0.951-0.012 0.082-0.018 0.163-0.020 0.244-0.010-0.022-0.019-0.044-0.029-0.065-0.165-0.354-0.388-0.699-0.665-1.018-0.068-0.078-0.928-0.852-0.995-0.734 0.007 0.017 0.021 0.032 0.042 0.043 0.001 0.001 0.001 0 0.001-0.001 0.050 0.075 0.194 0.19 0.239 0.255 0.113 0.164 0.2 0.339 0.289 0.51 0.188 0.362 0.362 0.727 0.531 1.094 0.039 0.085 0.080 0.17 0.122 0.255-0.431-0.569-1.006-1.085-1.797-1.38 0.27 0.126 0.447 0.362 0.63 0.544 0.22 0.219 0.452 0.431 0.672 0.649 0.26 0.258 0.566 0.529 0.816 0.814 0.242 0.466 0.478 0.932 0.623 1.421-0.060-0.169-0.005-0.403-0.015-0.58-0.008-0.141-0.026-0.281-0.051-0.421 0.031 0.063 0.057 0.126 0.069 0.185-0.011-0.099-0.023-0.196-0.037-0.294 0.035-0.091 0.069-0.176 0.092-0.246 0.118-0.359 0.258-0.712 0.448-1.057 0.177-0.318 0.379-0.633 0.6-0.938 0.103-0.142 0.207-0.284 0.311-0.425 0.068-0.093 0.132-0.241 0.227-0.33-0.611 0.511-1.278 1.026-1.666 1.639z"></path>
            <path fill="#f58b3d" style="fill: var(--color1, #f58b3d)" d="M48.436 5.894c-0.175-0.534-0.586-0.953-1.013-1.336-0.831-0.746-1.277-1.207-1.574-2.299-0.174-0.642-0.351-1.322-0.904-1.788-0.402-0.339-1.094-0.624-1.632-0.381-0.827 0.452-1.050 1.379-0.966 2.209 0.103 1.029 0.629 1.664 1.638 2.043 0.569 0.213 0.947 0.495 1.255 0.986 0.247 0.392 0.391 0.884 0.701 1.24 0.464 0.532 1.044 0.768 1.76 0.68-0.67-1.128-1.453-2.267-2.398-3.217-0.088-0.095-0.61-0.461-0.505-0.624 0.116-0.179 0.651 0.494 0.647 0.49 0.274 0.288 0.528 0.595 0.778 0.904-0.001 0-0.001 0-0.002 0.001 0.257 0.317 0.512 0.639 0.761 0.965 0.101 0.138 0.199 0.278 0.294 0.421 0.138 0.21 0.358 0.806 0.584 0.936 0.048 0.028 0.093 0.043 0.135 0.049 0.154 0.231 0.304 0.464 0.447 0.7 0.373 0.616 0.693 1.266 0.84 1.961 0.043 0.203 0.013 0.962 0.164 1.108 0.277 0.268 0.196-0.248 0.179-0.404-0.138-1.289-0.644-2.388-1.378-3.472 0.226-0.27 0.258-0.956 0.187-1.173z"></path>
            <path fill="#f58b3d" style="fill: var(--color1, #f58b3d)" d="M38.957 6.517c0.292-0.315 0.993-0.368 1.422-0.347 0.531 0.026 1.076 0.144 1.581 0.287 0.832 0.235 1.64 0.665 2.373 1.081 0.088 0.050 1.176 0.649 1.080 0.754s-1.163-0.607-1.401-0.729c-0.508-0.261-0.973-0.571-1.533-0.744-0.58-0.179-1.192-0.25-1.802-0.245-0.078 0.001-0.333-0.049-0.339 0.057-0.005 0.104 0.417 0.050 0.491 0.050 0.307 0.003 0.617 0.029 0.92 0.078 0.568 0.091 1.102 0.275 1.588 0.558-0.136 0.289-0.461 0.422-0.802 0.35-0.295-0.062-0.583-0.216-0.871-0.261-0.199-0.031-0.398-0.012-0.591 0.039-0.509 0.135-0.802 0.412-1.362 0.22-0.439-0.151-1.172-0.694-0.753-1.146z"></path>
            <path fill="#f58b3d" style="fill: var(--color1, #f58b3d)" d="M37.703 1.449c-0.648-0.043-1.371 0.43-1.684 0.922-0.252 0.397-0.21 0.918-0.054 1.34 0.104 0.282 0.332 0.685 0.711 0.689 0.474 0.005 0.497-0.526 0.506-0.836 0.012-0.413 0.070-0.772 0.429-1.053 0.044-0.035 0.091-0.067 0.138-0.1 0.041-0.029 0.083-0.058 0.122-0.088 0.006-0.005 0.013-0.010 0.019-0.015 0.127-0.097 0.26-0.198 0.277-0.357 0.023-0.231-0.12-0.272-0.34-0.229-0.007 0.001-0.026 0.008-0.053 0.017-0.112 0.038-0.352 0.121-0.306 0.022 0.017-0.037 0.079-0.066 0.158-0.088 0.204-0.020 0.446-0.043 0.516-0.029 0.753 0.149 1.046 1.093 1.124 1.693 0.009 0.068 0.016 0.136 0.022 0.204h0.138c-0.010-0.16-0.022-0.32-0.052-0.479-0.111-0.594-0.458-1.466-1.219-1.563-0.028-0.004-0.131-0.004-0.256 0.002-0.059-0.030-0.126-0.048-0.196-0.052z"></path>
        </symbol>
        <symbol id="icon-Error-logo" viewBox="0 0 32 32">
            <path d="M0 16c0-8.838 7.162-16 16-16s16 7.162 16 16c0 8.837-7.163 16-16 16s-16-7.163-16-16zM10.938 13.006l2.944 2.938-2.944 2.994c-0.581 0.588-0.581 1.538 0 2.069 0.588 0.637 1.537 0.637 2.069 0l2.938-2.888 2.994 2.888c0.588 0.637 1.538 0.637 2.069 0 0.637-0.531 0.637-1.481 0-2.069l-2.888-2.994 2.888-2.938c0.637-0.531 0.637-1.481 0-2.069-0.531-0.581-1.481-0.581-2.069 0l-2.994 2.944-2.938-2.944c-0.531-0.581-1.481-0.581-2.069 0-0.581 0.588-0.581 1.537 0 2.069z"></path>
        </symbol>
        <symbol id="icon-valid" viewBox="0 0 32 32">
            <path d="M0 16c0-8.838 7.162-16 16-16s16 7.162 16 16c0 8.837-7.163 16-16 16s-16-7.163-16-16zM23.237 13.238c0.681-0.681 0.681-1.794 0-2.475s-1.794-0.681-2.475 0l-6.763 6.762-2.763-2.762c-0.681-0.681-1.794-0.681-2.475 0s-0.681 1.794 0 2.475l4 4c0.681 0.681 1.794 0.681 2.475 0l8-8z"></path>
        </symbol>
        <symbol id="icon-circle-chevron-up-solid" viewBox="0 0 32 32">
            <path d="M16 32c8.837 0 16-7.163 16-16s-7.163-16-16-16v0c-8.837 0-16 7.163-16 16s7.163 16 16 16v0zM23.563 16.938c0.587 0.587 0.587 1.538 0 2.119s-1.538 0.587-2.119 0l-5.438-5.438-5.438 5.438c-0.588 0.587-1.537 0.587-2.119 0s-0.588-1.538 0-2.119l6.487-6.5c0.588-0.588 1.538-0.588 2.119 0l6.506 6.5z"></path>
        </symbol>
    </defs>
</svg>
