<svg aria-hidden="true" style="position: absolute; width: 0; height: 0; overflow: hidden;" version="1.1" xmlns="http://www.w3.org/2000/svg" xmlns:xlink="http://www.w3.org/1999/xlink">
    <defs>
        <symbol id="icon-Logo" viewBox="0 0 41 32">
            <path d="M16.267 31.111v-4.889l-0.267-0.889v-8.444c0-1.778-0.533-3.111-1.6-4.089-0.978-0.978-2.578-1.511-4.622-1.511-0.018-0-0.039-0-0.061-0-2.767 0-5.315 0.936-7.345 2.509l0.027-0.020-1.778-3.111c1.244-0.978 2.667-1.778 4.356-2.222 1.689-0.533 3.467-0.8 5.333-0.8 3.111 0 5.6 0.8 7.378 2.311 1.689 1.6 2.578 3.911 2.578 7.111v14.044h-4zM8.622 31.378c-1.778 0-3.289-0.267-4.622-0.889-1.2-0.538-2.191-1.358-2.919-2.378l-0.015-0.022c-0.674-1.033-1.076-2.298-1.076-3.657 0-1.238 0.333-2.399 0.915-3.397l-0.017 0.032c0.622-0.889 1.6-1.778 2.933-2.4s3.2-0.889 5.511-0.889h7.378v3.022h-7.111c-2.222 0-3.556 0.356-4.356 1.067-0.711 0.711-1.067 1.511-1.067 2.489 0 1.156 0.444 2.133 1.333 2.756 0.979 0.673 2.191 1.075 3.496 1.075 0.115 0 0.229-0.003 0.342-0.009l-0.016 0.001c1.511 0 2.933-0.356 4.089-1.067 1.244-0.711 2.044-1.778 2.667-3.111l0.8 2.933c-0.594 1.413-1.615 2.549-2.9 3.272l-0.033 0.017c-1.41 0.735-3.080 1.166-4.85 1.166-0.17 0-0.339-0.004-0.507-0.012l0.024 0.001z"></path>
            <path d="M29.689 31.378c-2.489 0-4.622-0.444-6.578-1.511-3.526-1.956-5.874-5.656-5.874-9.905 0-0.143 0.003-0.285 0.008-0.426l-0.001 0.020c-0.015-0.211-0.023-0.457-0.023-0.705 0-4.124 2.284-7.715 5.655-9.577l0.056-0.028c1.778-1.067 3.733-1.6 5.956-1.6s4.267 0.533 5.956 1.511c1.778 0.978 3.111 2.4 4.089 4.178 0.91 1.707 1.444 3.733 1.444 5.884 0 0.59-0.040 1.17-0.118 1.738l0.007-0.066h-19.733v-3.022h17.6l-1.778 1.067c0-1.511-0.267-2.844-0.889-4-1.293-2.247-3.681-3.735-6.416-3.735-0.057 0-0.114 0.001-0.17 0.002l0.008-0c-1.511 0-2.756 0.356-3.911 1.067-1.13 0.629-2.038 1.537-2.649 2.632l-0.018 0.034c-0.622 1.244-0.978 2.578-0.978 4.089v0.711c0 1.511 0.356 2.933 1.067 4.178 0.711 1.156 1.778 2.133 3.022 2.756 1.244 0.711 2.756 1.067 4.444 1.067 1.333 0 2.667-0.267 3.733-0.711 1.125-0.516 2.073-1.237 2.835-2.123l0.009-0.011 2.4 2.667c-1.065 1.239-2.407 2.21-3.932 2.82l-0.068 0.024c-1.511 0.711-3.289 0.978-5.244 0.978z"></path>
            <path d="M37.333 3.289h-15.378v-3.289h15.378v3.289z"></path>
        </symbol>
        <symbol id="icon-tel" viewBox="0 0 32 32">
            <path d="M29.236 6.109l-3.782-3.927c-0.453-0.491-1.1-0.797-1.818-0.797s-1.365 0.306-1.817 0.795l-0.002 0.002-4.073 4.218c-0.446 0.447-0.721 1.064-0.721 1.745s0.276 1.298 0.721 1.746l-0-0 3.2 3.345c-1.517 3.476-4.234 6.192-7.615 7.672l-0.095 0.037-3.345-3.2c-0.447-0.446-1.064-0.721-1.745-0.721s-1.298 0.276-1.746 0.721l0-0-4.218 4.073c-0.491 0.453-0.797 1.1-0.797 1.818s0.306 1.365 0.795 1.817l0.002 0.002 3.927 3.636c0.796 0.835 1.917 1.354 3.159 1.354 0.22 0 0.435-0.016 0.646-0.048l-0.024 0.003c4.8-0.873 9.455-3.345 13.382-7.273s6.4-8.727 7.273-13.382c0.145-1.455-0.291-2.909-1.309-3.782zM27.782 9.455c-0.582 4.218-2.909 8.436-6.4 11.927s-7.709 5.818-11.927 6.545c-0.582 0-1.164 0-1.455-0.436l-3.927-3.927 4.073-3.927 4.364 4.364 0.873-0.291c4.74-1.841 8.405-5.554 10.142-10.207l0.039-0.121 0.436-0.873-4.364-4.364 3.927-4.073 4.073 3.782c0.291 0.436 0.582 1.018 0.436 1.455z"></path>
        </symbol>
        <symbol id="icon-Burger" viewBox="0 0 32 32">
            <path d="M4 5.333h24v2.667h-24v-2.667zM12 14.667h16v2.667h-16v-2.667zM4 24h24v2.667h-24v-2.667z"></path>
        </symbol>
    </defs>
</svg>
