<svg xmlns="http://www.w3.org/2000/svg" width="46" height="36" fill="none"><path fill="#0E0E0E" d="M18.3 35v-5.5l-.3-1V19c0-2-.6-3.5-1.8-4.6-1.1-1.1-2.9-1.7-5.2-1.7a13.5 13.5 0 0 0-8.3 2.8L.7 12c1.4-1.1 3-2 4.9-2.5 1.9-.6 3.9-.9 6-.9 3.5 0 6.3.9 8.3 2.6 1.9 1.8 2.9 4.4 2.9 8V35h-4.5Zm-8.6.3c-2 0-3.7-.3-5.2-1a8 8 0 0 1-3.3-2.7 7.6 7.6 0 0 1-.2-7.9c.7-1 1.8-2 3.3-2.7 1.5-.7 3.6-1 6.2-1h8.3v3.4h-8c-2.5 0-4 .4-4.9 1.2-.8.8-1.2 1.7-1.2 2.8 0 1.3.5 2.4 1.5 3.1a7 7 0 0 0 4.3 1.2c1.7 0 3.3-.4 4.6-1.2 1.4-.8 2.3-2 3-3.5l.9 3.3a7.5 7.5 0 0 1-3.3 3.7 12 12 0 0 1-6 1.3Z"/><path fill="#0E0E0E" d="M33.4 35.3c-2.8 0-5.2-.5-7.4-1.7A12.7 12.7 0 0 1 19.4 22a12.3 12.3 0 0 1 6.4-11.6c2-1.2 4.2-1.8 6.7-1.8s4.8.6 6.7 1.7c2 1.1 3.5 2.7 4.6 4.7a14.3 14.3 0 0 1 1.5 8.5H23.1v-3.4h19.8l-2 1.2c0-1.7-.3-3.2-1-4.5a8.3 8.3 0 0 0-7.4-4.2c-1.7 0-3.1.4-4.4 1.2a7.6 7.6 0 0 0-3 3c-.7 1.4-1.1 2.9-1.1 4.6v.8c0 1.7.4 3.3 1.2 4.7.8 1.3 2 2.4 3.4 3.1 1.4.8 3.1 1.2 5 1.2 1.5 0 3-.3 4.2-.8A9.2 9.2 0 0 0 41 28l2.7 3a11.4 11.4 0 0 1-4.5 3.2c-1.7.8-3.7 1.1-5.9 1.1Z"/><path fill="#0E0E0E" fill-rule="evenodd" d="M42 3.7H24.7V0H42v3.7Z" clip-rule="evenodd"/></svg>