<svg xmlns="http://www.w3.org/2000/svg" width="188" height="142" fill="none"><path fill="#F58B3D" fill-rule="evenodd" d="M173.6 113.6c2.4 16.4-56 27-106.1 19.6-50.3-7.5-73.3-36.6-49.3-52 24-15.6 153 16 155.4 32.4Z" clip-rule="evenodd" opacity=".5"/><path fill="#F58B3D" fill-rule="evenodd" d="M101.5 45.3c.9-.6 2.3-.2 3.2.2l1.9 1.1-.2-1-.6-4.6v-1.3a35 35 0 0 0 0-.6 6 6 0 0 1-1.4-3c0-1 .8-2.9 2-1.6.6.6.5 4.5-.4 4.8a41.6 41.6 0 0 0 1 3.9v-.8c.2-1 1.1-3.2 2.6-2.7 1.2.3.5 1.6.1 2.1-.6 1-1.4 1.3-2.3 1.8 0 .2-.1.3-.3.4.6 2 1.4 4.1 2.5 6l.4-1.5c.5-.7 1.7-1.7 2.7-1.2 2.2 1-.2 3.6-2 3.9l-.3.2a24.8 24.8 0 0 0 3.2 4.2c0-.6.3-2 .4-2.2.4-1 1.8-2 3-1.3 1.3.8 0 2.2-.6 2.9-.3.2-1.8 1.2-2.3 1.2a95 95 0 0 0 5.5 5.7c-.2-.8-.4-3-.3-3.3 0-1.4 1-3.4 2.9-3 1.8.6 1 2.7.4 3.8L121 61l-.4.2-.5.2-.2.3c0 .1 0 .2-.2.3a207 207 0 0 0 4.6 4.3 89.5 89.5 0 0 0 1.8 1.5v-.5c-.3.4-.3-.1-.3-.5v-.3l-.1-.8-.2-1.6c0-1.2.8-3.2 2.6-2.5 1.5.6 1 2.4.4 3.5a10 10 0 0 1-1.5 2l-.3.3-.4.5 4.5 3.6 2 1.5v-.3l-.2-.3c-.4-1.7-1.6-7 1.8-6 2.5.8.7 5.4-1.1 7a118.2 118.2 0 0 1 5.6 4.8c-.3-1-.7-2.1-.5-3.1.4-1.4 2-2.7 3.6-2 2 1 .5 2.4-1 3.7-.7.7-1.4 1.3-1.6 1.9 2.4 2.3 4.4 5 5.7 8a20 20 0 0 1 2.1 11.3c.2-1.6-.4-3.6-.9-5l-.1-.6c-.6-2.2-1.5-4.3-2.7-6.3-1.9-3.2-4.4-6-7.3-8.4l-2 .9-.8.4c-1.1.5-3.2 1-4-.3-.6-1.3 1.1-2 2.2-2.4 1-.3 2-.2 3 0l-4.6-3.6-.9-.7-1.3 1.2c-1.5 1.5-3.2 3.2-4.8 1.8-2.3-2.1 2.2-4.3 4-4.1l.8.1c-2-1.5-4-3-5.7-4.7-.4 0-.9.5-1.5 1-1.4 1.2-3.4 2.8-4.8 1.6-1-1-.7-2.4.3-3.2 1-.9 2.5-.9 3.8-.6l1.5.6a168.7 168.7 0 0 1-5.4-5c0 .1-.3.2-.4.1l-.3.1c-1.4.5-3.1 1-4.5.8-1-.2-2-1-1-1.9.6-.7 2.5-.6 3.4-.4.5 0 1 .3 1.4.6l.7.3.2-.2a67 67 0 0 1-4.8-5.5c-.5 0-1 .3-1.5.5-1.2.4-2.6.9-3.5-.2-1.4-1.5 1.2-2.4 2.5-2.2l1.2.3a19.3 19.3 0 0 1-2.5-5l-.1-.5a2 2 0 0 0-.3-.1c.6.4-1.8.5-2.3.6-1 0-2.3 0-3-.7-.6-.6-.6-1.5.2-2Zm46 52.8-.4 1.4.3-1.4Z" clip-rule="evenodd"/><path fill="#F1F447" fill-rule="evenodd" d="M56.1 11.5c-.7-.5-1.7-.2-2.3.1-.3.1-1 .4-1.5.8l.2-.8c.2-1 .4-2.2.4-3.3v-.9a23 23 0 0 1 0-.4c.6-.7 1-1.4 1-2.2.1-.7-.5-2-1.4-1.1-.4.4-.3 3.2.3 3.4A30 30 0 0 1 52 10v-.5c0-.8-.8-2.3-1.9-2-.8.2-.3 1.2 0 1.6.5.6 1 1 1.7 1.3 0 .1 0 .2.2.2-.5 1.5-1 3-1.8 4.4l-.3-1.1c-.4-.6-1.2-1.2-2-.9-1.6.7.1 2.6 1.5 2.8l.2.2a17.8 17.8 0 0 1-2.3 3l-.3-1.6c-.4-.7-1.4-1.4-2.2-.9-1 .6-.1 1.6.4 2a5 5 0 0 0 1.7 1 69 69 0 0 1-4 4l.2-2.3c0-1-.8-2.5-2.1-2.1-1.3.3-.8 1.9-.3 2.6.3.5.6 1 1 1.3l.4.1.3.2.1.2.2.2a150 150 0 0 1-4.7 4.2v-.3c.2.3.2-.1.2-.4v-.3l.1-.5.2-1.2c0-.8-.6-2.3-1.9-1.8-1.2.5-.7 1.8-.3 2.6l1 1.3.3.3.3.4-3.3 2.6-1.5 1.1v-.2h.1v-.2c.4-1.3 1.3-5.1-1.2-4.4-1.9.6-.6 3.9.8 5a85.6 85.6 0 0 0-4.2 3.6c.3-.7.6-1.6.4-2.3-.2-1-1.4-2-2.6-1.4-1.4.7-.3 1.7.7 2.6.6.5 1 1 1.2 1.4a19.8 19.8 0 0 0-4.2 5.8c-1 2.3-2 5.5-1.5 8.2a10.8 10.8 0 0 1 .8-4c.4-1.7 1-3.2 2-4.7 1.3-2.3 3.1-4.3 5.2-6l1.5.6.6.3c.8.4 2.4.8 2.9-.2s-.8-1.5-1.6-1.7c-.8-.2-1.5-.2-2.2 0a157.6 157.6 0 0 1 4-3.1l1 .8c1 1 2.3 2.3 3.5 1.3 1.7-1.5-1.6-3-3-3l-.5.1c1.4-1 2.9-2.2 4.2-3.4.2 0 .6.4 1 .8 1 .8 2.5 2 3.6 1 .7-.6.5-1.6-.3-2.2-.7-.6-1.8-.6-2.7-.4-.4 0-.8.2-1.1.4a123.5 123.5 0 0 0 3.9-3.6h.3l.2.1c1 .4 2.3.8 3.3.6.8-.1 1.4-.7.8-1.4-.5-.5-1.9-.4-2.6-.3-.3 0-.6.3-1 .4l-.4.3-.2-.2c1.2-1.2 2.4-2.5 3.5-4l1 .4c1 .3 2 .7 2.6 0 1-1.2-.9-1.8-1.8-1.7l-.9.2a13.8 13.8 0 0 0 2-4h.1c-.4.2 1.4.3 1.7.4.7 0 1.7 0 2.2-.5.5-.5.5-1.1 0-1.5Zm-33.6 38c0 .4.1.7.3 1l-.3-1Z" clip-rule="evenodd" opacity=".2"/><g fill-rule="evenodd" clip-rule="evenodd" opacity=".7"><path fill="#B45661" d="M127.7 73.8c3.6-.2 8 1.7 8.4 5.3.3 2.5.2 5 .6 7.7.4 2 1 4 2 5.8 1 1.8 3 3.4 3.5 5.3.3 1.2.2 3-.3 4.1-.5 1.5-.2 1.4.8 2.6a33 33 0 0 1 5.5 7.7c2 4.1 3.2 8.9 2.5 13.4 0 .6-.2 2.6-1 2.8-1 .1-.6-1-.5-1.4.3-2.4.6-4.6.2-7-1.5-9.5-9-15.7-13.9-23.8l-1.2-2c-.6-1-1.2-3-2-3.8-1.7-1.4-.2 1.5.1 2l1.2 2c1.8 3 3.9 6 5.8 9-8.2 1.6-14-7.3-16.1-13.2-1.8-4.8-4-16 4.4-16.5Z" opacity=".7"/><path fill="#E7502F" d="M175.6 64.8c-6 .5-9.8 4-11.6 9-1 2.8-1 5.5-1.6 8.3-.8 4.2-2.5 7.4-5.9 10.4-1 .9-1.8 1.8-2.4 2.8-1 1-2 2.2-2.7 3.6-.9 1.8-1.1 4-.1 5.7a6 6 0 0 0 1.7 1.9 34 34 0 0 0-4 16.5l.5 10.3c0 1 .4 2.4.9.9.4-1.4-.1-3.6-.2-5.1a40.6 40.6 0 0 1 3.9-22.5l.2-.1.2-.4a97.1 97.1 0 0 1 7.3-9.6s2.6-3.1 2.2-1.4c-.2.9-2.1 2.5-2.9 3.4a84.1 84.1 0 0 0-6 8l-.4.7c5.8 1.7 10.4-1.8 13.5-6 .9-1 1.9-2.2 3-3 2-1.6 4.2-1.8 6.6-2.6 6.5-2 9.2-9.6 10-15.3 1-6.3-3.8-16.1-12.2-15.5Z" opacity=".7"/><path fill="#E7502F" d="M163.8 47a48 48 0 0 0-11.4 21.4c-2.6 8.5-4.4 17-4.4 25.9 0 5.7-.2 11.6.1 17.3l.7 6.2c0 .1.9 4.7 1.6 3.6.5-.6-.8-4.7-.9-5.4-.5-3.8-.6-7.7-.6-11.6 0-6.3-.2-12.7.5-19 .1-1 .2-2 .5-3 .2-.9 0-.5.8-.9.8-.3 1.8-.3 2.7-.8 3.4-1.8 5.2-6.7 6.5-9.9a73.4 73.4 0 0 0 4.4-19.8l.3-2.7.3-.9c0-.4-.3-.7-.3-1l-.8.6ZM130.4 124.4c0 9.6 8.6 17.4 19.1 17.4 10.6 0 19.1-7.8 19.1-17.4" opacity=".7"/><path fill="#B45661" d="M162.6 109.1c4.7-.3 10 3.2 12.3 6.8 1.8 3 1.5 6.7.4 9.8-.8 2.1-2.4 5-5.2 5.1-3.5 0-3.6-3.9-3.7-6.1 0-3-.5-5.7-3.1-7.8l-1-.7a25 25 0 0 1-1-.6v-.2c-1-.7-2-1.4-2-2.6-.3-1.7.8-2 2.4-1.7l.4.2c.8.2 2.6.8 2.2.1-.1-.2-.6-.5-1.1-.6-1.5-.2-3.3-.3-3.8-.2-5.5 1-7.6 8-8.2 12.4l-.2 1.4h-1l.4-3.4c.8-4.4 3.4-10.8 9-11.5h1.8l1.4-.4Z" opacity=".7"/></g><g fill-rule="evenodd" clip-rule="evenodd" opacity=".5"><path fill="#B45661" d="M46.7 42c1-1.4 3.1-5 4.7-5.5 1-.4.7 3 .7 3.7 0 2.5-.2 5-.6 7.5A27.8 27.8 0 0 1 41.1 65c-1 .6-2.3.7-3.3 1.2-1.2.6-.6 0-1 1.2-.8 1.6-1 3.6-1.4 5.3-1.6 7.6-5.4 48-4.7 55.8 0 .6-1 .8-1 0-.4-4.5 2-35.4 3.3-45.5 1.2-10 2.4-19 3.7-22.5a90.5 90.5 0 0 1 10-18.6Z" opacity=".5"/><path fill="#F1F447" d="M54.8 91.6c2.9-2 6 1.6 3.4 3.6-1.4 1-3 .6-3.8-.2L53 96.7c-1.5 1.7-3 3.3-4.3 5-2.8 3.6-5.2 7.4-7.7 11-2.5 3.7-5 7.4-7.2 11-2 3.3-4.5 7-5.2 10.4 1-7.3 4.8-14.4 9.3-20.9a75.5 75.5 0 0 1 16.4-18.5c-.7-1-.7-2.3.6-3.1Z" opacity=".5"/><path fill="#B45661" d="M.5 73.6c1.6.3 4.2 3.6 5.5 4.9a79.5 79.5 0 0 1 12 16.1c3.6 6.5 6.5 13.2 8.6 20.2 1.3 4.3 2 8.8 2.6 13.3 0 .8 1 7.3-.4 7.5-1.2.1-.8-5-.9-5.6a82.8 82.8 0 0 0-5.6-22.7c-.6-1.6-1.2-3.6-2.2-5-.7-1 0-.7-1.2-1.1-1-.3-2.3-.3-3.4-.7-2.4-.9-4.3-2.6-6-4.3a29 29 0 0 1-7.2-11.5C1.5 82.3.8 80 .4 77.4c0-.6-1-4 .1-3.8Z" opacity=".5"/><path fill="#E7502F" d="M6.8 18.7c6 9.6 11 20 14.2 30.6 2 6.4 3.3 13 4.7 19.6 2 10.1 4 20.2 4.6 30.5.6 10.4 1.7 22.4-2 32.4 1.8-10.2 0-21-.3-31.2-.1-4.8-.6-9.7-1.1-14.5-.6-4.7-1.5-9.4-2.3-14l-1.3-6.8c-.2-.7-.2-2.7-.7-3.2-.5-.4-2.9-.6-3.6-1-1.6-.7-3-1.6-4.3-2.7-2.4-2-4.5-4.5-6.2-7-3.9-6-5.4-13.1-5.4-20 0-1.3 2.4-15.5 1.5-15.7l.1-.2 2.1 3.2Z" opacity=".5"/><path fill="#E7502F" d="M72 53s.7-.9.4-.8c.6-.1-.9 1 .7.3-.8.6-.4 1.4-.3 2.3 0 1.4-.3 2.7-.6 4-.4 2.2-1.1 4.3-2 6.3A28.5 28.5 0 0 1 60 76.3c-2.1 1.3-4.2 1.8-6.6 2.4-1.5.4-1.7 1-2.5 2.4a145.2 145.2 0 0 0-10 19c-5.4 11.9-9.9 24.2-12.2 36.9a70 70 0 0 1 4.3-22.4c1.7-5.2 4-10.2 6.4-15.2.6-1.2 1.5-2.7 1.8-4 .1-1-.4-1.9-.6-2.9-1-3.8-1-8-.1-12 1-4.2 3.6-6.1 8.1-6.7 1.7-.2 3.8-.2 5.3-.8 1.7-.7 2.4-3 3.3-4.5a61.6 61.6 0 0 1 12-13.7c.7-.5 2.2-1 2.7-1.7Z" opacity=".5"/><path fill="#F1F447" d="M19.9 130.3c-.2-.8.5-1.4 1.3-1.4h16c.8 0 1.4.6 1.3 1.4l-1.2 7.6c-.4 2.4-2.6 4.1-5.2 4.1h-5.8c-2.6 0-4.8-1.7-5.2-4l-1.2-7.7Z" opacity=".5"/></g><path fill="#F58B3D" fill-rule="evenodd" d="M6.7 132.8c0 5 .4 9.2 6.3 9.2 5.9 0 6.3-4.1 6.3-9.2" clip-rule="evenodd"/><path fill="#F58B3D" fill-rule="evenodd" d="M14.8 129.7c-.3.3-.5.6-.6 1l.1-2.2c.2-1.3.6-2.5.9-3.8.2-1 .1-2.5 1-3.3.2-.1.2.2.2.3 0 0 0-.5-.2-.4-1.3.6-1.7 2.5-2 3.4a17 17 0 0 0-1.5 5.3l-.1-.3c-.7-1.5-1.7-3-3-4.5-.3-.3-4.1-3.8-4.4-3.3 0 .1 0 .2.2.2.2.4.8.9 1 1.2l1.3 2.2a115 115 0 0 1 3 6c-2-2.5-4.6-4.8-8-6.1 1.1.5 2 1.6 2.7 2.4l3 2.9c1.2 1.1 2.6 2.3 3.7 3.6 1 2 2.1 4.1 2.8 6.3-.3-.7 0-1.8-.1-2.6l-.2-1.8.3.8-.2-1.3.4-1.1a26.6 26.6 0 0 1 4.7-8.9l1.4-1.9 1-1.4c-2.7 2.2-5.7 4.5-7.4 7.3ZM180 26.2c-.7-2.4-2.6-4.3-4.5-6-3.7-3.3-5.7-5.3-7-10.2-.8-2.8-1.6-5.8-4-8-1.8-1.4-4.9-2.7-7.3-1.6-3.7 2-4.7 6.1-4.3 9.8.4 4.6 2.8 7.4 7.3 9 2.5 1 4.2 2.3 5.6 4.4 1.1 1.8 1.7 4 3.1 5.5 2 2.4 4.7 3.5 7.9 3-3-5-6.5-10-10.7-14.2-.4-.4-2.7-2-2.3-2.8.5-.8 3 2.2 3 2.2l3.4 4a207.2 207.2 0 0 1 4.7 6.2c.6.9 1.6 3.5 2.6 4.1l.6.2 2 3.1c1.6 2.8 3 5.7 3.7 8.7.2 1 0 4.3.8 5 1.2 1.1.8-1.1.8-1.8a33.1 33.1 0 0 0-6.2-15.4c1-1.2 1.2-4.3.8-5.2ZM137.8 29c1.3-1.5 4.4-1.7 6.3-1.6 2.4 0 4.8.6 7 1.3 3.8 1 7.4 3 10.6 4.8.4.2 5.3 2.8 4.9 3.3-.5.5-5.2-2.7-6.3-3.2-2.3-1.2-4.3-2.6-6.8-3.3-2.6-.8-5.3-1.1-8-1.1-.4 0-1.6-.2-1.6.2 0 .5 1.9.2 2.2.2 1.4 0 2.8.2 4.1.4 2.5.4 5 1.2 7.1 2.5-.6 1.2-2 1.8-3.6 1.5-1.3-.3-2.6-1-3.9-1.1-.9-.2-1.7-.1-2.6.1-2.3.6-3.6 1.9-6 1-2-.7-5.3-3-3.4-5ZM132.2 6.4c-3-.2-6.2 2-7.5 4.1-1.2 1.8-1 4.1-.3 6 .5 1.2 1.5 3 3.2 3 2.1 0 2.2-2.3 2.2-3.7.1-1.8.4-3.4 2-4.7l.6-.4.5-.4h.1c.6-.5 1.2-1 1.2-1.6.1-1-.5-1.3-1.5-1h-.2c-.5.2-1.6.5-1.4.1 0-.2.4-.3.7-.4 1 0 2-.2 2.3-.1 3.4.7 4.7 4.8 5 7.5l.1 1h.6c0-.8 0-1.5-.2-2.2-.5-2.7-2-6.5-5.4-7H133l-.8-.2Z" clip-rule="evenodd"/></svg>